<svg width="14" height="20" viewBox="0 0 14 20" fill="none" xmlns="http://www.w3.org/2000/svg">
<path d="M4.89955 11.3119L9.1645 3.932C9.88929 2.67797 9.45938 1.07474 8.2038 0.351496C6.94821 -0.371745 5.34187 0.0566109 4.61708 1.31064L0.35213 8.6905C-0.372664 9.94453 0.0572464 11.5462 1.31283 12.271C2.56841 12.9958 4.17475 12.5659 4.89955 11.3119Z" fill="#FF7A27"/>
<path d="M12.4699 7.72833C11.2143 7.00508 9.60799 7.43345 8.88319 8.68748L4.61824 16.0673C3.89345 17.3214 4.32336 18.923 5.57894 19.6478C6.83453 20.3726 8.44087 19.9427 9.16566 18.6887L13.4306 11.3088C14.1554 10.0548 13.7255 8.45157 12.4699 7.72833Z" fill="#FF7A27"/>
</svg>
