<svg width="130" height="56" viewBox="0 0 130 56" fill="none" xmlns="http://www.w3.org/2000/svg">
<path d="M0 7C0 3.13401 3.13401 0 7 0H123C126.866 0 130 3.13401 130 7V49C130 52.866 126.866 56 123 56H7C3.13401 56 0 52.866 0 49V7Z" fill="white"/>
<path d="M0.325008 7C0.325008 3.3135 3.3135 0.325008 7 0.325008H123C126.686 0.325008 129.675 3.3135 129.675 7V49C129.675 52.6865 126.687 55.675 123 55.675H7C3.31351 55.675 0.325008 52.6865 0.325008 49V7Z" stroke="#BBBBBB" stroke-opacity="0.5" stroke-width="0.650015"/>
<path d="M51.0704 19.2951C49.9521 19.2951 49 20.1273 49 21.208C49 22.2888 49.9521 23.121 51.0704 23.121C52.1887 23.121 53.1408 22.2888 53.1408 21.208C53.1408 20.1273 52.1887 19.2951 51.0704 19.2951Z" fill="#1D1D1B"/>
<path d="M52.928 24.3365H49.4417V35.4052H52.928V24.3365Z" fill="#1D1D1B"/>
<path d="M41.6409 24.0677C40.4446 24.0677 39.4375 24.3754 38.6458 24.9418V19.1423H35.249V29.2444C35.249 33.3029 38.0433 35.6724 41.3721 35.6724C44.701 35.6724 47.6311 33.3751 47.6311 29.87C47.6311 26.3664 44.8498 24.0677 41.6409 24.0677ZM41.4834 32.7264C39.9028 32.7264 38.6227 31.4478 38.6227 29.87C38.6227 28.2923 39.9042 27.0136 41.4834 27.0136C43.0626 27.0136 44.3441 28.2923 44.3441 29.87C44.3456 31.4478 43.064 32.7264 41.4834 32.7264Z" fill="#1D1D1B"/>
<path d="M74.3412 24.0677C71.1323 24.0677 68.1719 26.3649 68.1719 29.8701C68.1719 33.3752 71.1308 35.6724 74.3412 35.6724C77.5501 35.6724 80.5106 33.3752 80.5106 29.8701C80.5106 26.3664 77.5501 24.0677 74.3412 24.0677ZM74.3412 32.7264C72.7606 32.7264 71.4805 31.4478 71.4805 29.8701C71.4805 28.2923 72.762 27.0137 74.3412 27.0137C75.9218 27.0137 77.2019 28.2923 77.2019 29.8701C77.2019 31.4478 75.9218 32.7264 74.3412 32.7264Z" fill="#1D1D1B"/>
<path d="M60.974 24.0677C57.4559 24.0677 55.2078 26.3649 55.2078 29.8701V35.4051H58.6941V30.1388C58.6941 28.2793 59.4179 27.1928 60.974 27.1928C62.5301 27.1928 63.2539 28.2793 63.2539 30.1388V35.4051H66.7402V29.8701C66.7402 26.3664 64.4921 24.0677 60.974 24.0677Z" fill="#1D1D1B"/>
<path d="M108.265 24.0677C105.056 24.0677 102.096 26.3649 102.096 29.8701C102.096 33.3752 105.055 35.6724 108.265 35.6724C111.474 35.6724 114.435 33.3752 114.435 29.8701C114.435 26.3664 111.476 24.0677 108.265 24.0677ZM108.265 32.7264C106.685 32.7264 105.405 31.4478 105.405 29.8701C105.405 28.2923 106.686 27.0137 108.265 27.0137C109.846 27.0137 111.126 28.2923 111.126 29.8701C111.126 31.4478 109.846 32.7264 108.265 32.7264Z" fill="#1D1D1B"/>
<path d="M95.1034 24.0677C93.4852 24.0677 92.1863 24.6514 91.3036 25.6931C90.4222 24.6514 89.1233 24.0677 87.5037 24.0677C84.3511 24.0677 81.96 26.2768 81.96 29.7805V35.4037H85.4463V29.7805C85.4463 28.0987 86.147 27.1914 87.5023 27.1914C88.8575 27.1914 89.5582 28.0973 89.5582 29.7805V35.4037H93.0446V29.7805C93.0446 28.0987 93.7453 27.1914 95.1005 27.1914C96.4558 27.1914 97.1565 28.0973 97.1565 29.7805V35.4037H100.643V29.7805C100.646 26.2768 98.256 24.0677 95.1034 24.0677Z" fill="#1D1D1B"/>
<path d="M19.5611 29.5305L23.5314 22.6604C24.2062 21.493 23.806 20.0005 22.6371 19.3272C21.4683 18.6539 19.9729 19.0527 19.2981 20.2201L15.3278 27.0902C14.6531 28.2576 15.0533 29.7486 16.2221 30.4234C17.391 31.0981 18.8864 30.6979 19.5611 29.5305Z" fill="#FFDC3C"/>
<path d="M26.609 26.1945C25.4402 25.5212 23.9448 25.92 23.2701 27.0874L19.2997 33.9574C18.625 35.1248 19.0252 36.6159 20.1941 37.2906C21.3629 37.9653 22.8583 37.5651 23.533 36.3977L27.5034 29.5276C28.1781 28.3602 27.7779 26.8677 26.609 26.1945Z" fill="#FFDC3C"/>
</svg>
