<svg width="130" height="56" viewBox="0 0 130 56" fill="none" xmlns="http://www.w3.org/2000/svg">
<path d="M0 7C0 3.13401 3.13401 0 7 0H65H123C126.866 0 130 3.13401 130 7V49C130 52.866 126.866 56 123 56H7C3.13401 56 0 52.866 0 49V7Z" fill="white"/>
<path d="M0.325008 7C0.325008 3.3135 3.3135 0.325008 7 0.325008H65H123C126.687 0.325008 129.675 3.3135 129.675 7V49C129.675 52.6865 126.687 55.675 123 55.675H7C3.31351 55.675 0.325008 52.6865 0.325008 49V7Z" stroke="#BBBBBB" stroke-opacity="0.5" stroke-width="0.650015"/>
<path d="M20.1043 32.7101C21.8803 32.7101 23.3429 31.6692 23.9399 30.0773L22.0743 29.5109C21.7311 30.3069 20.9848 30.7967 20.1043 30.7967C19.4924 30.7967 18.97 30.5824 18.5521 30.1385C18.1342 29.6946 17.9253 29.1588 17.9253 28.5006C17.9253 27.8424 18.1342 27.3066 18.5521 26.8627C18.97 26.4188 19.4924 26.2045 20.1043 26.2045C20.9848 26.2045 21.7311 26.6943 22.0743 27.4903L23.9399 26.9239C23.3429 25.332 21.8803 24.2911 20.1043 24.2911C18.9252 24.2911 17.9551 24.6891 17.1641 25.5004C16.388 26.2963 16 27.2913 16 28.5006C16 29.7099 16.388 30.7049 17.1641 31.5161C17.9551 32.3121 18.9252 32.7101 20.1043 32.7101ZM28.5815 32.7101C29.462 32.7101 30.253 32.4193 30.9396 31.8529V32.4805H32.7902V24.5207H30.9396V25.1483C30.253 24.5819 29.462 24.2911 28.5815 24.2911C27.5069 24.2911 26.6114 24.6891 25.8801 25.5004C25.1637 26.2963 24.8055 27.2913 24.8055 28.5006C24.8055 29.7099 25.1637 30.7049 25.8801 31.5161C26.6114 32.3121 27.5069 32.7101 28.5815 32.7101ZM28.8203 30.7967C28.2382 30.7967 27.7308 30.5824 27.3278 30.1385C26.9248 29.6946 26.7308 29.1588 26.7308 28.5006C26.7308 27.8424 26.9248 27.3066 27.3278 26.8627C27.7308 26.4188 28.2382 26.2045 28.8203 26.2045C29.4023 26.2045 29.8949 26.4188 30.2978 26.8627C30.7008 27.3066 30.9097 27.8424 30.9097 28.5006C30.9097 29.1588 30.7008 29.6946 30.2978 30.1385C29.8949 30.5824 29.4023 30.7967 28.8203 30.7967ZM36.2378 35.9247V31.8529C36.9244 32.4193 37.7005 32.7101 38.581 32.7101C39.6556 32.7101 40.5511 32.3121 41.2824 31.5161C42.0137 30.7049 42.3719 29.7099 42.3719 28.5006C42.3719 27.2913 42.0137 26.2963 41.2824 25.5004C40.5511 24.6891 39.6556 24.2911 38.581 24.2911C37.7005 24.2911 36.9244 24.5819 36.2378 25.1483V24.5207H34.3723V35.9247H36.2378ZM38.3422 30.7967C37.7602 30.7967 37.2676 30.5824 36.8647 30.1385C36.4617 29.6946 36.2677 29.1588 36.2677 28.5006C36.2677 27.8424 36.4617 27.3066 36.8647 26.8627C37.2676 26.4188 37.7602 26.2045 38.3422 26.2045C38.9243 26.2045 39.4168 26.4188 39.8198 26.8627C40.2227 27.3066 40.4317 27.8424 40.4317 28.5006C40.4317 29.1588 40.2227 29.6946 39.8198 30.1385C39.4168 30.5824 38.9243 30.7967 38.3422 30.7967ZM44.5807 23.8166C45.2822 23.8166 45.7747 23.2808 45.7747 22.592C45.7747 21.9031 45.2523 21.3827 44.5807 21.3827C43.9091 21.3827 43.4017 21.9031 43.4017 22.592C43.4017 23.2808 43.9091 23.8166 44.5807 23.8166ZM45.521 32.4805V24.5207H43.6554V32.4805H45.521ZM51.3565 32.4805V30.6589H50.3864C49.8342 30.6589 49.4312 30.2456 49.4312 29.6946V26.1892H51.3565V24.5207H49.4312V22.9593H47.5657V24.5207H46.4612V26.1892H47.5657V29.9701C47.5657 30.6895 47.8194 31.2865 48.3268 31.7611C48.8342 32.2356 49.4611 32.4805 50.2073 32.4805H51.3565ZM55.9981 32.7101C56.8786 32.7101 57.6696 32.4193 58.3562 31.8529V32.4805H60.2068V24.5207H58.3562V25.1483C57.6696 24.5819 56.8786 24.2911 55.9981 24.2911C54.9235 24.2911 54.028 24.6891 53.2967 25.5004C52.5803 26.2963 52.2221 27.2913 52.2221 28.5006C52.2221 29.7099 52.5803 30.7049 53.2967 31.5161C54.028 32.3121 54.9235 32.7101 55.9981 32.7101ZM56.2369 30.7967C55.6548 30.7967 55.1474 30.5824 54.7444 30.1385C54.3414 29.6946 54.1474 29.1588 54.1474 28.5006C54.1474 27.8424 54.3414 27.3066 54.7444 26.8627C55.1474 26.4188 55.6548 26.2045 56.2369 26.2045C56.8189 26.2045 57.3115 26.4188 57.7144 26.8627C58.1174 27.3066 58.3263 27.8424 58.3263 28.5006C58.3263 29.1588 58.1174 29.6946 57.7144 30.1385C57.3115 30.5824 56.8189 30.7967 56.2369 30.7967ZM63.6544 32.4805V21H61.7888V32.4805H63.6544Z" fill="#1D1D1B"/>
<path d="M86.1604 32.7101C87.235 32.7101 88.1305 32.3121 88.8618 31.5161C89.5931 30.7049 89.9513 29.7099 89.9513 28.5006C89.9513 27.2913 89.5931 26.2963 88.8618 25.5004C88.1305 24.6891 87.235 24.2911 86.1604 24.2911C85.2799 24.2911 84.5038 24.5819 83.8172 25.1483V21H81.9517V32.4805H83.8172V31.8529C84.5038 32.4193 85.2799 32.7101 86.1604 32.7101ZM85.9216 30.7967C85.3396 30.7967 84.847 30.5824 84.4441 30.1385C84.0411 29.6946 83.8471 29.1588 83.8471 28.5006C83.8471 27.8424 84.0411 27.3066 84.4441 26.8627C84.847 26.4188 85.3396 26.2045 85.9216 26.2045C86.5037 26.2045 86.9962 26.4188 87.3992 26.8627C87.8021 27.3066 88.0111 27.8424 88.0111 28.5006C88.0111 29.1588 87.8021 29.6946 87.3992 30.1385C86.9962 30.5824 86.5037 30.7967 85.9216 30.7967ZM95.1451 32.7101C96.7121 32.7101 98.0554 31.9141 98.7717 30.6436L96.9659 30.1079C96.5181 30.6742 95.9062 30.9498 95.1451 30.9498C94.0556 30.9498 93.1601 30.2456 92.8765 29.2047H99.0404C99.0852 28.8986 99.1001 28.669 99.1001 28.5006C99.1001 27.3066 98.7121 26.3116 97.921 25.5004C97.145 24.6891 96.1749 24.2911 95.0257 24.2911C93.8765 24.2911 92.9064 24.6891 92.1154 25.5004C91.3393 26.2963 90.9512 27.2913 90.9512 28.5006C90.9512 29.7099 91.3542 30.7049 92.1452 31.5161C92.9511 32.3121 93.9511 32.7101 95.1451 32.7101ZM97.1748 27.7199H92.8914C93.175 26.7249 94.0257 26.0514 94.9958 26.0514C96.0107 26.0514 96.8763 26.7249 97.1748 27.7199ZM103.742 32.7101C104.622 32.7101 105.413 32.4193 106.1 31.8529V32.4805H107.95V24.5207H106.1V25.1483C105.413 24.5819 104.622 24.2911 103.742 24.2911C102.667 24.2911 101.772 24.6891 101.04 25.5004C100.324 26.2963 99.9657 27.2913 99.9657 28.5006C99.9657 29.7099 100.324 30.7049 101.04 31.5161C101.772 32.3121 102.667 32.7101 103.742 32.7101ZM103.98 30.7967C103.398 30.7967 102.891 30.5824 102.488 30.1385C102.085 29.6946 101.891 29.1588 101.891 28.5006C101.891 27.8424 102.085 27.3066 102.488 26.8627C102.891 26.4188 103.398 26.2045 103.98 26.2045C104.563 26.2045 105.055 26.4188 105.458 26.8627C105.861 27.3066 106.07 27.8424 106.07 28.5006C106.07 29.1588 105.861 29.6946 105.458 30.1385C105.055 30.5824 104.563 30.7967 103.98 30.7967ZM111.398 32.4805V28.1026C111.398 27.0464 112.159 26.2504 113.189 26.2504C113.458 26.2504 113.711 26.3116 113.95 26.4188V24.2911C112.786 24.2911 111.935 24.6891 111.398 25.5004V24.5207H109.532V32.4805H111.398Z" fill="#1D1D1B"/>
<path fill-rule="evenodd" clip-rule="evenodd" d="M76.7966 27.7411L75.1454 30.2683C74.9387 30.5845 74.6722 30.8482 74.3533 31.0517C73.9265 31.3242 73.434 31.4682 72.9291 31.4682C72.7436 31.4682 72.5574 31.4486 72.3758 31.41C71.6864 31.2634 71.0947 30.8579 70.7094 30.2683L69.0581 27.7411L67.8136 29.6457C67.6194 29.9428 67.5161 30.289 67.5161 30.6428C67.5161 31.1503 67.7243 31.6097 68.0608 31.9423C68.3973 32.2748 68.8621 32.4806 69.3756 32.4806H76.4791C76.8369 32.4806 77.1872 32.3786 77.4879 32.1866C77.9193 31.9113 78.1968 31.4891 78.2969 31.0294C78.3971 30.5696 78.3197 30.072 78.0411 29.6457L76.7966 27.7411Z" fill="#9E50EE"/>
<path fill-rule="evenodd" clip-rule="evenodd" d="M72.5359 30.1796C73.0011 30.2786 73.5045 30.2021 73.9358 29.9267C74.1573 29.7853 74.346 29.599 74.4891 29.38L78.0408 23.9443C78.3194 23.518 78.3968 23.0204 78.2967 22.5606C78.1965 22.1008 77.919 21.6787 77.4877 21.4034C77.187 21.2115 76.8367 21.1094 76.4789 21.1094H69.3752C68.8619 21.1094 68.3969 21.3151 68.0604 21.6478C67.7239 21.9804 67.5159 22.4398 67.5159 22.9473C67.5159 23.301 67.6191 23.6473 67.8133 23.9443L71.3651 29.38C71.6436 29.8062 72.0707 30.0806 72.5359 30.1796Z" fill="url(#paint0_linear_111_301)"/>
<defs>
<linearGradient id="paint0_linear_111_301" x1="608.647" y1="23.0757" x2="608.647" y2="932.268" gradientUnits="userSpaceOnUse">
<stop stop-color="#FF514F"/>
<stop offset="1" stop-color="#F55B51"/>
</linearGradient>
</defs>
</svg>
