<svg width="136" height="61" viewBox="0 0 136 61" fill="none" xmlns="http://www.w3.org/2000/svg">
<rect x="5.57812" y="5.00098" width="130" height="56" rx="7" fill="white"/>
<rect x="5.90313" y="5.32598" width="129.35" height="55.35" rx="6.67499" stroke="#BBBBBB" stroke-opacity="0.5" stroke-width="0.650015"/>
<path d="M32.4244 27.2404V23H34.5542V27.2404H32.4244ZM45.2011 35.7207H40.9426V33.6008H45.2011V35.7207ZM36.501 30.1632L33.4896 33.1618L30.4782 30.1632L28.9728 31.6628L31.9842 34.6608L33.4896 33.1618L34.995 34.6608L38.0064 31.6628L36.501 30.1632ZM33.4896 36.1604L36.501 39.1583L38.0064 37.6593L34.995 34.6608L33.4896 36.1604ZM28.9722 37.6588L31.9842 34.6608L33.4896 36.1604L30.4782 39.1583L28.9722 37.6588ZM32.4249 42.0811V46.3216H34.5542V42.0811H32.4249ZM26.0366 35.7207H21.7781V33.6008H26.0366V35.7207ZM41.0184 25.6657L38.007 28.6642L39.513 30.1632L42.5243 27.1652L41.0184 25.6657ZM39.513 39.1583L42.5243 42.1563L41.0184 43.6559L38.007 40.6573L39.513 39.1583ZM28.9728 40.6573L27.4668 39.1583L24.4554 42.1563L25.9614 43.6559L28.9728 40.6573ZM25.9614 25.6657L28.9728 28.6642L27.4668 30.1632L24.4554 27.1652L25.9614 25.6657ZM55.4806 33.5746V31.4972H63.3738V29.3604H53.0086V39.9618H63.4479V37.8249H55.4812V35.6368H63.0549V33.5746H55.4806ZM70.4659 34.5354L68.3355 32.3473H65.3136L68.8625 35.9773L64.8979 39.9618H67.9198L70.4659 37.404L73.0126 39.9618H76.0345L72.0698 35.9773L75.6188 32.3473H72.5969L70.4659 34.5354ZM77.4962 39.9618V32.3473H79.9315V33.3746C80.3694 32.7018 81.1938 32.1251 82.7161 32.1251C85.8342 32.1251 86.9706 33.8923 86.9706 36.3096V39.9618H84.5352V36.3096C84.5352 35.0456 84.0076 33.9885 82.2334 33.9885C80.4586 33.9885 79.9315 35.0456 79.9315 36.3096V39.9618H77.4962Z" fill="#1D1D1B"/>
<path fill-rule="evenodd" clip-rule="evenodd" d="M93.6814 40.1834C97.2303 40.1834 99.0418 38.5351 99.0418 36.1546C99.0418 33.7595 97.2303 32.1258 93.6814 32.1258C90.1324 32.1258 88.3203 33.7595 88.3203 36.1546C88.3203 38.5351 90.1324 40.1834 93.6814 40.1834ZM93.6814 38.3206C91.5801 38.3206 90.7557 37.404 90.7557 36.1546C90.7557 34.9051 91.5801 33.9886 93.6814 33.9886C95.7826 33.9886 96.6065 34.9051 96.6065 36.1546C96.6065 37.404 95.7826 38.3206 93.6814 38.3206Z" fill="#1D1D1B"/>
<path d="M107.475 32.3473H110.044L105.901 39.9617H103.465L99.3223 32.3473H101.891L104.683 37.5072L107.475 32.3473Z" fill="#1D1D1B"/>
<path fill-rule="evenodd" clip-rule="evenodd" d="M110.418 37.6629C110.418 39.4663 112.118 40.1391 114.316 40.1391C116.031 40.1391 116.855 39.6662 117.286 38.9637V39.9618H119.729V35.2672C119.729 33.1974 118.793 32.1258 115.489 32.1258C114.063 32.1258 113.001 32.3182 112.259 32.5024C111.828 32.6132 111.458 32.7391 111.146 32.8797L111.992 34.4247C112.267 34.3285 112.571 34.2475 112.92 34.1734C113.715 34.0024 114.527 33.9157 115.341 33.9146C117.055 33.9146 117.293 34.4101 117.293 35.0824C113.247 34.7868 110.418 35.1564 110.418 37.6629ZM112.853 37.4414C112.853 36.3686 114.687 36.347 117.286 36.428V37.0122C117.286 37.6699 116.603 38.2763 114.91 38.2763C113.321 38.2763 112.853 37.9515 112.853 37.4414Z" fill="#1D1D1B"/>
<path d="M0.778076 14.6049H5.59808V19.4728L3.18808 17.0388L0.778076 14.6049Z" fill="#DF880F"/>
<path d="M0.778076 0H86.7781L78.9599 7.30189L86.7781 14.6038H0.778076V0Z" fill="#F9B94A"/>
<path d="M11.5445 5.34767V4.52483H15.4213V5.34767H13.9761V9.24524H12.9896V5.34767H11.5445ZM16.1895 9.24524V4.52483H18.0519C18.4084 4.52483 18.7126 4.5886 18.9646 4.71613C19.2182 4.84213 19.411 5.02115 19.5432 5.25317C19.6768 5.48366 19.7437 5.75487 19.7437 6.0668C19.7437 6.38026 19.6761 6.64993 19.5409 6.87581C19.4056 7.10016 19.2097 7.27225 18.9531 7.39211C18.698 7.51196 18.3892 7.57189 18.0265 7.57189H16.7796V6.76979H17.8652C18.0557 6.76979 18.214 6.74367 18.34 6.69142C18.466 6.63918 18.5597 6.56081 18.6212 6.45632C18.6842 6.35184 18.7157 6.22199 18.7157 6.0668C18.7157 5.91007 18.6842 5.77792 18.6212 5.67036C18.5597 5.5628 18.4652 5.48136 18.3377 5.42604C18.2117 5.36918 18.0527 5.34076 17.8606 5.34076H17.1876V9.24524H16.1895ZM18.7387 7.09708L19.9119 9.24524H18.8102L17.6624 7.09708H18.7387ZM23.4945 4.52483H24.4925V7.59033C24.4925 7.93453 24.4103 8.2357 24.2459 8.49385C24.083 8.75199 23.8548 8.95329 23.5613 9.09773C23.2678 9.24063 22.9259 9.31208 22.5356 9.31208C22.1438 9.31208 21.8011 9.24063 21.5077 9.09773C21.2142 8.95329 20.986 8.75199 20.8231 8.49385C20.6602 8.2357 20.5788 7.93453 20.5788 7.59033V4.52483H21.5768V7.50505C21.5768 7.68483 21.616 7.84464 21.6944 7.98447C21.7743 8.1243 21.8864 8.23416 22.0309 8.31406C22.1753 8.39397 22.3436 8.43392 22.5356 8.43392C22.7292 8.43392 22.8975 8.39397 23.0404 8.31406C23.1848 8.23416 23.2963 8.1243 23.3746 7.98447C23.4545 7.84464 23.4945 7.68483 23.4945 7.50505V4.52483ZM28.0041 5.88241C27.9857 5.69648 27.9066 5.55204 27.7667 5.44909C27.6269 5.34614 27.4371 5.29466 27.1974 5.29466C27.0346 5.29466 26.897 5.31771 26.7849 5.36381C26.6727 5.40837 26.5866 5.4706 26.5267 5.5505C26.4683 5.63041 26.4391 5.72106 26.4391 5.82248C26.4361 5.90699 26.4537 5.98075 26.4921 6.04375C26.5321 6.10675 26.5866 6.1613 26.6558 6.2074C26.7249 6.25196 26.8048 6.29114 26.8955 6.32495C26.9862 6.35721 27.083 6.38487 27.1859 6.40792L27.61 6.50934C27.8159 6.55543 28.0049 6.6169 28.177 6.69373C28.3491 6.77056 28.4982 6.86506 28.6242 6.97723C28.7502 7.0894 28.8477 7.22155 28.9169 7.37367C28.9876 7.52579 29.0237 7.7002 29.0252 7.89688C29.0237 8.18576 28.9499 8.43622 28.8039 8.64827C28.6595 8.85879 28.4505 9.02243 28.177 9.13921C27.905 9.25446 27.577 9.31208 27.1928 9.31208C26.8118 9.31208 26.4798 9.25369 26.1971 9.13691C25.9159 9.02013 25.6962 8.84726 25.5379 8.61831C25.3812 8.38782 25.299 8.10278 25.2913 7.7632H26.257C26.2678 7.92146 26.3131 8.05361 26.393 8.15964C26.4745 8.26412 26.5828 8.34326 26.718 8.39704C26.8548 8.44928 27.0092 8.47541 27.1813 8.47541C27.3503 8.47541 27.4971 8.45082 27.6215 8.40165C27.7475 8.35248 27.8451 8.2841 27.9143 8.19651C27.9834 8.10893 28.018 8.00828 28.018 7.89457C28.018 7.78855 27.9865 7.69943 27.9235 7.62721C27.862 7.55499 27.7714 7.49352 27.6515 7.44282C27.5332 7.39211 27.388 7.34601 27.2159 7.30452L26.7019 7.17545C26.3039 7.07864 25.9897 6.92729 25.7592 6.72139C25.5287 6.51548 25.4142 6.23813 25.4158 5.88932C25.4142 5.60352 25.4903 5.35382 25.6439 5.14023C25.7991 4.92665 26.012 4.75993 26.2824 4.64007C26.5528 4.52022 26.8602 4.46029 27.2044 4.46029C27.5547 4.46029 27.8605 4.52022 28.1217 4.64007C28.3845 4.75993 28.5888 4.92665 28.7348 5.14023C28.8808 5.35382 28.9561 5.60121 28.9607 5.88241H28.0041ZM29.6465 5.34767V4.52483H33.5234V5.34767H32.0782V9.24524H31.0917V5.34767H29.6465ZM34.2916 9.24524V4.52483H37.4724V5.34767H35.2896V6.47246H37.3087V7.2953H35.2896V8.42239H37.4816V9.24524H34.2916ZM40.069 9.24524H38.3956V4.52483H40.0828C40.5576 4.52483 40.9664 4.61933 41.309 4.80833C41.6517 4.99579 41.9152 5.26546 42.0996 5.61734C42.2855 5.96922 42.3785 6.39025 42.3785 6.88042C42.3785 7.37213 42.2855 7.7947 42.0996 8.14811C41.9152 8.50153 41.6501 8.77274 41.3044 8.96174C40.9602 9.15074 40.5484 9.24524 40.069 9.24524ZM39.3937 8.39013H40.0275C40.3225 8.39013 40.5707 8.33788 40.772 8.23339C40.9748 8.12737 41.1269 7.96372 41.2284 7.74245C41.3313 7.51965 41.3828 7.2323 41.3828 6.88042C41.3828 6.53162 41.3313 6.24658 41.2284 6.02531C41.1269 5.80404 40.9756 5.64116 40.7743 5.53667C40.573 5.43219 40.3248 5.37994 40.0298 5.37994H39.3937V8.39013ZM44.8796 9.24524V4.52483H46.742C47.1 4.52483 47.405 4.59321 47.657 4.72996C47.909 4.86518 48.1011 5.05342 48.2332 5.29466C48.3669 5.53437 48.4338 5.81096 48.4338 6.12442C48.4338 6.43788 48.3661 6.71447 48.2309 6.95418C48.0957 7.19389 47.8998 7.38058 47.6432 7.51427C47.3881 7.64795 47.0793 7.71479 46.7166 7.71479H45.5296V6.915H46.5553C46.7473 6.915 46.9056 6.88196 47.0301 6.81589C47.1561 6.74828 47.2498 6.65531 47.3113 6.537C47.3743 6.41714 47.4058 6.27962 47.4058 6.12442C47.4058 5.96769 47.3743 5.83093 47.3113 5.71415C47.2498 5.59583 47.1561 5.5044 47.0301 5.43987C46.9041 5.37379 46.7443 5.34076 46.5507 5.34076H45.8776V9.24524H44.8796ZM49.4803 9.24524H48.4109L50.0404 4.52483H51.3266L52.9538 9.24524H51.8843L50.7019 5.60352H50.6651L49.4803 9.24524ZM49.4135 7.3898H51.9397V8.16886H49.4135V7.3898ZM53.6518 9.24524V4.52483H55.5141C55.8706 4.52483 56.1749 4.5886 56.4269 4.71613C56.6804 4.84213 56.8732 5.02115 57.0054 5.25317C57.1391 5.48366 57.2059 5.75487 57.2059 6.0668C57.2059 6.38026 57.1383 6.64993 57.0031 6.87581C56.8679 7.10016 56.6719 7.27225 56.4153 7.39211C56.1603 7.51196 55.8514 7.57189 55.4888 7.57189H54.2418V6.76979H55.3274C55.518 6.76979 55.6762 6.74367 55.8022 6.69142C55.9282 6.63918 56.022 6.56081 56.0834 6.45632C56.1464 6.35184 56.1779 6.22199 56.1779 6.0668C56.1779 5.91007 56.1464 5.77792 56.0834 5.67036C56.022 5.5628 55.9275 5.48136 55.7999 5.42604C55.6739 5.36918 55.5149 5.34076 55.3228 5.34076H54.6498V9.24524H53.6518ZM56.201 7.09708L57.3742 9.24524H56.2724L55.1246 7.09708H56.201ZM57.8612 5.34767V4.52483H61.7381V5.34767H60.2929V9.24524H59.3064V5.34767H57.8612ZM66.4546 4.52483V9.24524H65.5926L63.5389 6.27424H63.5043V9.24524H62.5063V4.52483H63.3822L65.4197 7.49352H65.4612V4.52483H66.4546ZM67.409 9.24524V4.52483H70.5897V5.34767H68.407V6.47246H70.4261V7.2953H68.407V8.42239H70.599V9.24524H67.409ZM71.513 9.24524V4.52483H73.3754C73.7318 4.52483 74.0361 4.5886 74.2881 4.71613C74.5416 4.84213 74.7345 5.02115 74.8666 5.25317C75.0003 5.48366 75.0671 5.75487 75.0671 6.0668C75.0671 6.38026 74.9995 6.64993 74.8643 6.87581C74.7291 7.10016 74.5332 7.27225 74.2766 7.39211C74.0215 7.51196 73.7126 7.57189 73.35 7.57189H72.1031V6.76979H73.1887C73.3792 6.76979 73.5375 6.74367 73.6635 6.69142C73.7895 6.63918 73.8832 6.56081 73.9447 6.45632C74.0077 6.35184 74.0392 6.22199 74.0392 6.0668C74.0392 5.91007 74.0077 5.77792 73.9447 5.67036C73.8832 5.5628 73.7887 5.48136 73.6612 5.42604C73.5352 5.36918 73.3761 5.34076 73.184 5.34076H72.511V9.24524H71.513ZM74.0622 7.09708L75.2354 9.24524H74.1337L72.9858 7.09708H74.0622Z" fill="#333333"/>
</svg>
