<svg width="130" height="56" viewBox="0 0 130 56" fill="none" xmlns="http://www.w3.org/2000/svg">
<path d="M0 7C0 3.13401 3.13401 0 7 0H123C126.866 0 130 3.13401 130 7V49C130 52.866 126.866 56 123 56H7C3.13401 56 0 52.866 0 49V7Z" fill="white"/>
<path d="M0.325008 7C0.325008 3.3135 3.3135 0.325008 7 0.325008H123C126.686 0.325008 129.675 3.3135 129.675 7V49C129.675 52.6865 126.686 55.675 123 55.675H7C3.31351 55.675 0.325008 52.6865 0.325008 49V7Z" stroke="#BBBBBB" stroke-opacity="0.5" stroke-width="0.650015"/>
<path fill-rule="evenodd" clip-rule="evenodd" d="M18.0305 22.877L25.465 18.756C25.9279 18.4994 26.5063 18.5195 26.9464 18.7677L34.2739 23.1863C34.7301 23.4634 35.003 23.9558 34.9963 24.4895L34.8283 32.9871C34.8217 33.5209 34.5162 33.9931 34.0533 34.2496L26.6188 38.3706C26.156 38.6272 25.5776 38.6071 25.1375 38.3589L17.842 33.9982C17.614 33.8597 17.4277 33.6601 17.3153 33.4573C17.2029 33.2546 17.1163 32.9619 17.1357 32.724L17.2716 24.1684C17.2783 23.6347 17.5388 23.1496 18.0305 22.877ZM16.4265 24.1447L16.2745 32.6713C16.2645 33.4719 16.714 34.2828 17.3983 34.6985L24.7097 39.0881C25.41 39.5328 26.313 39.5245 27.0362 39.1236L34.4707 35.0026C35.1939 34.6017 35.6505 33.8564 35.6734 33.0109L35.8254 24.4842C35.8223 24.0695 35.7165 23.6738 35.5239 23.3263C35.3312 22.9788 35.0518 22.6794 34.7017 22.457L27.3902 18.0674C26.6899 17.6227 25.7869 17.6311 25.0637 18.032L17.6292 22.153C16.906 22.5538 16.4365 23.3441 16.4265 24.1447Z" fill="#2292E7"/>
<path fill-rule="evenodd" clip-rule="evenodd" d="M21.3406 33.0048H23.3186V26.8823H21.3406V33.0048Z" fill="#2292E7"/>
<path fill-rule="evenodd" clip-rule="evenodd" d="M24.9197 31.7804H26.8977V25.658H24.9197V31.7804Z" fill="#2292E7"/>
<path fill-rule="evenodd" clip-rule="evenodd" d="M28.6877 30.2735H30.6658V24.151H28.6877V30.2735Z" fill="#2292E7"/>
<path fill-rule="evenodd" clip-rule="evenodd" d="M52.9511 26.5056H51.3336L49.551 28.9599L47.7684 26.5056H46.1508L48.6927 29.9549L46.0188 33.57H47.6033L49.551 30.9167L51.4656 33.57H53.0832L50.3763 29.9549L52.9511 26.5056Z" fill="#2292E7"/>
<path fill-rule="evenodd" clip-rule="evenodd" d="M59.2012 29.9679C59.2012 31.415 58.41 32.4016 57.2232 32.4016C56.5309 32.4016 55.7726 32.0069 55.41 31.4479V28.5209C55.7726 27.9618 56.5309 27.5672 57.2232 27.5672C58.443 27.5672 59.2012 28.5209 59.2012 29.9679ZM57.4869 26.3174C56.6957 26.3174 55.9375 26.6463 55.41 27.2054V26.4819H54.0254V36.0192H55.41V32.7633C55.9704 33.3224 56.6957 33.6513 57.4869 33.6513C59.3661 33.6513 60.6188 32.1714 60.6188 29.9679C60.6188 27.7645 59.399 26.3174 57.4869 26.3174Z" fill="#2292E7"/>
<path fill-rule="evenodd" clip-rule="evenodd" d="M62.7192 29.4541C62.8175 28.6199 63.4072 27.5187 64.7176 27.5187C66.0935 27.5187 66.6504 28.6199 66.7487 29.4541H62.7192ZM64.7176 26.3174C62.752 26.3174 61.2778 27.9191 61.2778 30.0213C61.2778 32.2236 62.752 33.7586 64.8159 33.7586C65.9297 33.7586 66.8797 33.3915 67.5677 32.6574L67.6659 32.5573L66.978 31.5896L66.8469 31.7231C66.3556 32.2236 65.6348 32.524 64.9141 32.524C63.5382 32.524 62.8175 31.5563 62.6865 30.5219H68.0591V30.0881C68.0918 27.8858 66.7159 26.3174 64.7176 26.3174Z" fill="#2292E7"/>
<path fill-rule="evenodd" clip-rule="evenodd" d="M70.1801 27.2823V26.4838H68.8135V33.5702H70.1801V28.6796C70.473 28.1805 71.2539 27.7148 71.8071 27.7148C71.9372 27.7148 72.0674 27.7148 72.1975 27.748L72.3928 27.7813V26.3174H72.2301C71.4491 26.3507 70.7333 26.6834 70.1801 27.2823Z" fill="#2292E7"/>
<path fill-rule="evenodd" clip-rule="evenodd" d="M76.8175 32.1737C76.7174 32.273 76.4837 32.4055 76.2167 32.4055C75.7495 32.4055 75.6827 31.9749 75.6827 31.7099V27.7021H77.0511V26.4435H75.6827V24.6218H74.281V26.4435H73.1462V27.7021H74.281V31.9418C74.281 33.068 74.8817 33.6642 75.9497 33.6642C76.5505 33.6642 76.9844 33.4985 77.3181 33.2004L77.3849 33.1342L76.951 32.008L76.8175 32.1737Z" fill="#2292E7"/>
<path fill-rule="evenodd" clip-rule="evenodd" d="M86.6357 28.7192C86.6357 31.1917 85.0798 32.906 82.895 32.906C80.6439 32.906 79.1543 31.2247 79.1543 28.7192C79.1543 26.2137 80.677 24.5324 82.895 24.5324C85.1129 24.5324 86.6357 26.2137 86.6357 28.7192ZM82.895 23.7741C80.2136 23.7741 78.3267 25.8181 78.3267 28.7192C78.3267 31.6203 80.2136 33.6642 82.895 33.6642C85.5432 33.6642 87.4632 31.5873 87.4632 28.7192C87.4632 25.851 85.5432 23.7741 82.895 23.7741Z" fill="#2292E7"/>
<path fill-rule="evenodd" clip-rule="evenodd" d="M89.2309 28.2249C89.5966 27.6329 90.4942 27.0081 91.4915 27.0081C92.9542 27.0081 93.8851 28.1591 93.8851 29.9679C93.8851 31.7767 92.9542 32.9278 91.4915 32.9278C90.4942 32.9278 89.6298 32.3029 89.2309 31.6781V28.2249ZM91.5247 26.3174C90.6936 26.3174 89.8293 26.6792 89.2641 27.3041V26.4819H88.4995V36.0192H89.2641V32.6318C89.8625 33.2566 90.6604 33.6513 91.5247 33.6513C93.4196 33.6513 94.7162 32.1714 94.7162 29.9679C94.6829 27.7974 93.4196 26.3174 91.5247 26.3174Z" fill="#2292E7"/>
<path fill-rule="evenodd" clip-rule="evenodd" d="M98.2032 32.6374C98.0708 32.7699 97.8391 32.9355 97.5413 32.9355C97.0779 32.9355 96.9787 32.5049 96.9787 32.1405V27.1391H98.3355V26.4435H96.9787V24.6218H96.2175V26.4435H95.0923V27.1391H96.2175V32.1405C96.2175 33.1011 96.6808 33.6642 97.5082 33.6642C98.1039 33.6642 98.4017 33.4323 98.6665 33.2004L98.7658 33.1011L98.3024 32.5049L98.2032 32.6374Z" fill="#2292E7"/>
<path fill-rule="evenodd" clip-rule="evenodd" d="M99.9902 33.57H100.838V26.5056H99.9902V33.57Z" fill="#2292E7"/>
<path fill-rule="evenodd" clip-rule="evenodd" d="M100.367 24.4336C100.068 24.4336 99.802 24.6995 99.802 24.9987C99.802 25.2979 100.068 25.5639 100.367 25.5639C100.666 25.5639 100.932 25.2979 100.932 24.9987C100.932 24.6995 100.7 24.4336 100.367 24.4336Z" fill="#2292E7"/>
<path fill-rule="evenodd" clip-rule="evenodd" d="M107.771 30.0213C107.771 31.4895 106.98 33.0245 105.265 33.0245C103.617 33.0245 102.76 31.5229 102.76 30.0213C102.76 28.5198 103.617 27.0182 105.265 27.0182C106.98 27.0182 107.771 28.5865 107.771 30.0213ZM105.265 26.3174C103.353 26.3174 101.969 27.8858 101.969 30.0213C101.969 32.1903 103.353 33.7586 105.265 33.7586C107.178 33.7586 108.562 32.1903 108.562 30.0213C108.562 27.8858 107.178 26.3174 105.265 26.3174Z" fill="#2292E7"/>
<path fill-rule="evenodd" clip-rule="evenodd" d="M112.424 26.3174C111.605 26.3174 110.753 26.7832 110.163 27.2823V26.4838H109.41V33.5702H110.163V28.1805C110.589 27.615 111.474 27.0161 112.358 27.0161C113.439 27.0161 113.931 27.5151 113.931 28.6796V33.5702H114.684V28.6796C114.684 27.0826 113.931 26.3174 112.424 26.3174Z" fill="#2292E7"/>
<path fill-rule="evenodd" clip-rule="evenodd" d="M45.7365 25.2267L44.7086 23.8683H39.2373V33.4759H45.637V32.1176H40.6963V29.2353H45.5376V27.877H40.6963V25.2267H45.7365Z" fill="#2292E7"/>
<path fill-rule="evenodd" clip-rule="evenodd" d="M116.046 25.9023H116.181C116.248 25.9023 116.302 25.885 116.342 25.8503C116.383 25.8156 116.403 25.7715 116.403 25.7181C116.403 25.6554 116.385 25.6105 116.349 25.5833C116.313 25.5562 116.256 25.5426 116.179 25.5426H116.046V25.9023ZM116.59 25.713C116.59 25.7799 116.572 25.839 116.536 25.8904C116.501 25.9418 116.451 25.98 116.387 26.0051L116.685 26.5002H116.474L116.215 26.0565H116.046V26.5002H115.861V25.3834H116.187C116.326 25.3834 116.428 25.4106 116.492 25.4649C116.557 25.5192 116.59 25.6019 116.59 25.713ZM115.171 25.9412C115.171 25.7574 115.217 25.585 115.309 25.4242C115.401 25.2633 115.527 25.1365 115.688 25.0437C115.849 24.9508 116.022 24.9044 116.207 24.9044C116.391 24.9044 116.563 24.9504 116.724 25.0423C116.885 25.1342 117.012 25.2606 117.104 25.4214C117.197 25.5823 117.244 25.7555 117.244 25.9412C117.244 26.1223 117.199 26.2923 117.11 26.4513C117.021 26.6104 116.896 26.7377 116.735 26.8332C116.574 26.9288 116.399 26.9766 116.207 26.9766C116.017 26.9766 115.842 26.9291 115.681 26.8339C115.52 26.7388 115.395 26.6117 115.306 26.4527C115.216 26.2937 115.171 26.1232 115.171 25.9412ZM115.397 25.9412C115.397 26.0857 115.433 26.2209 115.506 26.3466C115.579 26.4724 115.678 26.5714 115.804 26.6437C115.929 26.716 116.064 26.7521 116.207 26.7521C116.353 26.7521 116.488 26.7157 116.612 26.643C116.736 26.5704 116.835 26.472 116.908 26.3479C116.981 26.2238 117.018 26.0882 117.018 25.9412C117.018 25.7958 116.982 25.6608 116.909 25.5363C116.836 25.4118 116.738 25.313 116.614 25.2399C116.49 25.1668 116.354 25.1302 116.207 25.1302C116.062 25.1302 115.927 25.1666 115.803 25.2393C115.679 25.312 115.58 25.4103 115.507 25.5344C115.434 25.6585 115.397 25.7941 115.397 25.9412Z" fill="#2292E7"/>
</svg>
