<svg width="15" height="15" viewBox="0 0 15 15" fill="none" xmlns="http://www.w3.org/2000/svg">
<path d="M7.07326 0.0059185C5.63959 0.0939713 4.28557 0.571971 3.13276 1.39904C2.47357 1.87179 1.87516 2.47034 1.40251 3.12969C1.04933 3.62236 0.737023 4.1947 0.515894 4.7597C-0.00706041 6.08993 -0.137013 7.57214 0.146996 8.98203C0.710823 11.7924 2.83932 14.0419 5.61653 14.7641C6.23486 14.9256 6.82488 14.999 7.49246 15C7.97245 15 8.32353 14.9717 8.76998 14.8952C10.5495 14.5933 12.1561 13.6562 13.3141 12.2442C13.7941 11.6592 14.1965 10.9737 14.4774 10.263C14.7614 9.54494 14.9218 8.84052 14.9867 8.02498C15.0067 7.78179 15.0035 7.17486 14.9815 6.91385C14.8956 5.89286 14.644 4.99556 14.1945 4.10979C13.1758 2.10031 11.3009 0.646395 9.11163 0.169444C8.7878 0.0981636 8.43567 0.0468006 8.06886 0.0164013C7.8907 0.000678062 7.25981 -0.00561237 7.07326 0.0059185ZM8.29838 2.88859C8.57715 2.91794 8.80456 3.02591 9.00264 3.22298C9.14831 3.36973 9.24053 3.52802 9.28665 3.71251C9.31913 3.84564 9.31913 4.06996 9.28665 4.20309C9.1808 4.62867 8.79199 4.95782 8.32667 5.01652C8.05734 5.05112 7.77123 4.99451 7.55639 4.86453C7.26819 4.69052 7.07955 4.42427 7.03134 4.12342C7.01352 4.01126 7.02296 3.79742 7.05125 3.69469C7.14138 3.36449 7.41386 3.07518 7.75237 2.95148C7.92005 2.89069 8.10555 2.86972 8.29838 2.88859ZM7.40548 6.0176C7.89385 6.08154 8.24807 6.30691 8.42938 6.66961C8.55619 6.92328 8.5782 7.19268 8.51322 7.70527C8.48911 7.89919 8.46606 7.98725 8.19567 8.94534C7.91062 9.95271 7.90328 9.98206 7.8666 10.1634C7.81734 10.4035 7.80267 10.5292 7.80267 10.6875C7.80162 11.0345 7.8949 11.1771 8.16109 11.2399C8.22502 11.2546 8.2858 11.2588 8.45139 11.2588C8.69452 11.2588 8.77312 11.2452 9.03303 11.1592C9.11687 11.132 9.18709 11.11 9.18709 11.11C9.18918 11.1131 9.06552 11.6226 9.06133 11.6268C9.05504 11.633 8.43357 11.8689 8.2596 11.9307C7.95254 12.0408 7.74818 12.0796 7.42958 12.089C6.86366 12.1068 6.46961 11.9779 6.17722 11.6792C6.05879 11.5586 5.98962 11.4517 5.93513 11.3081C5.87644 11.1519 5.86282 11.0628 5.86386 10.85C5.86596 10.4412 5.90683 10.241 6.21285 9.16233C6.57755 7.87404 6.61214 7.72414 6.61214 7.417C6.61109 6.96626 6.46542 6.82999 5.98334 6.82894C5.89321 6.82894 5.79469 6.83523 5.74125 6.84466C5.65741 6.85934 5.46772 6.91385 5.3189 6.96626C5.28432 6.97779 5.25497 6.98513 5.25183 6.98198C5.24659 6.97674 5.36606 6.48302 5.37549 6.47149C5.38702 6.45681 5.86596 6.27547 6.10071 6.19685C6.4214 6.08993 6.6593 6.03227 6.87414 6.00921C6.97789 5.99768 7.29229 6.00292 7.40548 6.0176Z" fill="#FCFCFC"/>
</svg>
