<svg width="136" height="62" viewBox="0 0 136 62" fill="none" xmlns="http://www.w3.org/2000/svg">
<rect x="5.77808" y="5.45325" width="130" height="56" rx="7" fill="white"/>
<rect x="6.10308" y="5.77825" width="129.35" height="55.35" rx="6.67499" stroke="#BBBBBB" stroke-opacity="0.5" stroke-width="0.650015"/>
<path d="M34.004 45.941C40.5767 45.941 45.905 40.6128 45.905 34.04C45.905 27.4673 40.5767 22.1391 34.004 22.1391C27.4313 22.1391 22.103 27.4673 22.103 34.04C22.103 40.6128 27.4313 45.941 34.004 45.941Z" fill="#FF7700"/>
<path d="M33.6288 29.3875C34.4451 29.3875 35.1144 30.0569 35.1144 30.8731V39.052C35.1144 39.8682 34.4451 40.5375 33.6288 40.5375C32.8126 40.5375 32.1433 39.8682 32.1433 39.052V30.8731C32.1433 30.0569 32.8126 29.3875 33.6288 29.3875ZM28.7966 32.1791C29.6129 32.1791 30.2822 32.8484 30.2822 33.6647V39.052C30.2822 39.8682 29.6129 40.5375 28.7966 40.5375C27.9804 40.5375 27.311 39.8682 27.311 39.052V33.6647C27.311 32.8484 27.964 32.1791 28.7966 32.1791ZM38.4611 26.7918C39.2773 26.7918 39.9466 27.4612 39.9466 28.2774V39.0683C39.9466 39.8845 39.2773 40.5539 38.4611 40.5539C37.6448 40.5539 36.9755 39.8845 36.9755 39.0683V28.2774C36.9755 27.4612 37.6448 26.7918 38.4611 26.7918Z" fill="white"/>
<path d="M52.141 29.0117C51.9288 29.0117 51.7002 28.9627 51.5043 28.8811C51.3084 28.7995 51.1289 28.6852 50.9819 28.522C50.835 28.375 50.7207 28.1955 50.6228 27.9996C50.5412 27.8037 50.4922 27.5914 50.4922 27.3466C50.4922 27.118 50.5412 26.8895 50.6228 26.6936C50.7044 26.4977 50.8187 26.3181 50.9819 26.1711C51.1289 26.0242 51.3084 25.8936 51.5043 25.812C51.7002 25.7304 51.9288 25.6814 52.141 25.6814C52.5981 25.6814 52.9899 25.8447 53.3164 26.1548C53.6429 26.4813 53.8062 26.8568 53.8062 27.3139C53.8062 27.771 53.6429 28.1628 53.3164 28.473C52.9899 28.8485 52.5981 29.0117 52.141 29.0117ZM50.8677 39.9985V30.3993H53.4307V39.9985H50.8677ZM61.7728 40.2107V38.8394C61.5443 39.2475 61.1688 39.5904 60.679 39.8842C60.1893 40.1781 59.5689 40.3087 58.8343 40.3087C58.2139 40.3087 57.6426 40.1781 57.0875 39.9332C56.5325 39.672 56.0427 39.3128 55.6183 38.8721C55.1938 38.415 54.851 37.8762 54.6061 37.2559C54.3612 36.6355 54.2306 35.9499 54.2306 35.1989C54.2306 34.448 54.3612 33.7623 54.6061 33.142C54.851 32.5216 55.1938 31.9829 55.6183 31.5258C56.0427 31.085 56.5325 30.7258 57.0875 30.4646C57.6426 30.2034 58.2303 30.0728 58.8343 30.0892C59.5689 30.0892 60.1729 30.2361 60.679 30.5136C61.1688 30.8075 61.5443 31.1503 61.7728 31.5584V30.3993H64.3358V44.2267H61.7728V40.2107ZM59.3567 37.9415C59.6995 37.9415 60.026 37.8762 60.3199 37.7619C60.6301 37.6313 60.9076 37.4518 61.1361 37.2232C61.3647 36.9947 61.5606 36.7008 61.7075 36.358C61.8544 36.0152 61.9197 35.6397 61.9197 35.1989C61.9197 34.7581 61.8544 34.3827 61.7075 34.0398C61.5606 33.697 61.381 33.4195 61.1361 33.1746C60.9076 32.9461 60.6301 32.7665 60.3199 32.6359C60.0097 32.5053 59.6832 32.4563 59.3567 32.4563C59.0139 32.4563 58.6874 32.5216 58.3935 32.6522C58.0833 32.7828 57.8058 32.9624 57.5773 33.2073C57.3487 33.4358 57.1528 33.7297 57.0059 34.0725C56.859 34.4153 56.7937 34.7908 56.7937 35.2152C56.7937 35.6397 56.859 36.0152 57.0059 36.358C57.1528 36.7008 57.3324 36.9783 57.5773 37.2232C57.8058 37.4518 58.0833 37.6477 58.3935 37.7783C58.7037 37.8762 59.0302 37.9415 59.3567 37.9415ZM73.4942 30.0892C74.2452 30.0892 74.9145 30.2198 75.5348 30.4646C76.1552 30.7258 76.6939 31.0687 77.1347 31.5258C77.5918 31.9829 77.9346 32.5216 78.1958 33.142C78.457 33.7623 78.5713 34.448 78.5713 35.1989C78.5713 35.9499 78.4407 36.6355 78.1958 37.2559C77.9346 37.8762 77.5918 38.415 77.1347 38.8721C76.6776 39.3292 76.1552 39.672 75.5348 39.9332C74.9145 40.1944 74.2288 40.3087 73.4942 40.3087C72.7432 40.3087 72.0739 40.1781 71.4536 39.9332C70.8332 39.672 70.2945 39.3292 69.8537 38.8721C69.3966 38.415 69.0538 37.8762 68.7926 37.2559C68.5314 36.6355 68.4171 35.9499 68.4171 35.1989C68.4171 34.448 68.5477 33.7623 68.7926 33.142C69.0538 32.5216 69.3966 31.9829 69.8537 31.5258C70.3108 31.0687 70.8332 30.7258 71.4536 30.4646C72.0739 30.2198 72.7596 30.0892 73.4942 30.0892ZM73.4942 37.9415C73.8207 37.9415 74.1309 37.8762 74.4411 37.7619C74.7512 37.6313 75.0288 37.4518 75.2573 37.2232C75.4859 36.9947 75.6818 36.7008 75.8124 36.358C75.943 36.0152 76.0246 35.6397 76.0246 35.1989C76.0246 34.7581 75.9593 34.3827 75.8124 34.0398C75.6818 33.697 75.4859 33.4195 75.2573 33.1746C75.0288 32.9461 74.7512 32.7665 74.4411 32.6359C74.1472 32.5053 73.8207 32.4563 73.4942 32.4563C73.1514 32.4563 72.8412 32.5216 72.531 32.6359C72.2372 32.7665 71.9596 32.9461 71.7311 33.1746C71.5025 33.4032 71.3066 33.697 71.176 34.0398C71.0454 34.3827 70.9638 34.7581 70.9638 35.1989C70.9638 35.6397 71.0291 36.0152 71.176 36.358C71.3066 36.7008 71.5025 36.9783 71.7311 37.2232C71.9596 37.4518 72.2372 37.6313 72.531 37.7619C72.8412 37.8762 73.1677 37.9415 73.4942 37.9415ZM79.159 30.3993H81.722V31.5584C81.9506 31.1503 82.3261 30.8075 82.8158 30.5136C83.3056 30.2198 83.9259 30.0892 84.6605 30.0892C85.2809 30.0892 85.8523 30.2198 86.4073 30.4646C86.9624 30.7258 87.4521 31.085 87.8766 31.5258C88.301 31.9829 88.6439 32.5216 88.8887 33.142C89.1336 33.7623 89.2642 34.448 89.2642 35.1989C89.2642 35.9499 89.1336 36.6355 88.8887 37.2559C88.6439 37.8762 88.301 38.415 87.8766 38.8721C87.4521 39.3128 86.9624 39.672 86.4073 39.9332C85.8523 40.1944 85.2646 40.325 84.6605 40.3087C83.9259 40.3087 83.3219 40.1617 82.8158 39.8842C82.3261 39.5904 81.9506 39.2475 81.722 38.8394V44.2267H79.159V30.3993ZM84.1381 37.9415C84.481 37.9415 84.8075 37.8762 85.1013 37.7456C85.4115 37.615 85.689 37.4354 85.9176 37.1906C86.1461 36.962 86.342 36.6682 86.4889 36.3253C86.6359 35.9825 86.7012 35.607 86.7012 35.1826C86.7012 34.7581 86.6359 34.3827 86.4889 34.0398C86.342 33.697 86.1624 33.4195 85.9176 33.1746C85.689 32.9461 85.4115 32.7502 85.1013 32.6195C84.7911 32.4889 84.4646 32.4237 84.1381 32.4237C83.7953 32.4237 83.4688 32.489 83.175 32.6032C82.8648 32.7338 82.5873 32.9134 82.3587 33.142C82.1302 33.3705 81.9343 33.6644 81.7873 34.0072C81.6404 34.35 81.5751 34.7255 81.5751 35.1663C81.5751 35.607 81.6404 35.9825 81.7873 36.3253C81.9343 36.6682 82.1138 36.9457 82.3587 37.1906C82.5873 37.4191 82.8648 37.5987 83.175 37.7293C83.4688 37.8762 83.7953 37.9415 84.1381 37.9415ZM90.6682 32.5869H88.9867V30.3993H90.6682V27.4608H93.2312V30.3993H95.582V32.5869H93.2312V36.309C93.2312 36.5376 93.2475 36.7335 93.2965 36.9294C93.3455 37.1253 93.4271 37.2722 93.5577 37.4028C93.7373 37.615 93.9985 37.713 94.3413 37.713C94.5699 37.713 94.7331 37.6966 94.8637 37.6477C94.9943 37.5987 95.1249 37.5334 95.2392 37.4681L95.9575 39.721C95.6473 39.8679 95.3208 39.9822 94.9943 40.0475C94.6515 40.1128 94.2597 40.1617 93.8516 40.1617C93.3618 40.1617 92.9374 40.0801 92.5456 39.9332C92.1537 39.7863 91.8436 39.574 91.5824 39.3128C90.962 38.7251 90.6682 37.8925 90.6682 36.7988V32.5869ZM98.0961 29.0117C97.8838 29.0117 97.6553 28.9627 97.4594 28.8811C97.2635 28.7995 97.0839 28.6852 96.937 28.522C96.7901 28.375 96.6758 28.1955 96.5778 27.9996C96.4962 27.8037 96.4472 27.5914 96.4472 27.3466C96.4472 27.118 96.4962 26.8895 96.5778 26.6936C96.6595 26.4977 96.7737 26.3181 96.937 26.1711C97.0839 26.0242 97.2635 25.8936 97.4594 25.812C97.6553 25.7304 97.8838 25.6814 98.0961 25.6814C98.5532 25.6814 98.945 25.8447 99.2715 26.1548C99.598 26.4813 99.7612 26.8568 99.7612 27.3139C99.7612 27.771 99.598 28.1628 99.2715 28.473C98.945 28.7832 98.5532 29.0117 98.0961 29.0117ZM96.8227 39.9985V30.3993H99.3857V39.9985H96.8227ZM105.279 30.0892C106.03 30.0892 106.699 30.2198 107.32 30.4646C107.94 30.7258 108.479 31.0687 108.92 31.5258C109.377 31.9829 109.72 32.5216 109.981 33.142C110.242 33.7623 110.356 34.448 110.356 35.1989C110.356 35.9499 110.226 36.6355 109.981 37.2559C109.72 37.8762 109.377 38.415 108.92 38.8721C108.462 39.3292 107.94 39.672 107.32 39.9332C106.699 40.1944 106.014 40.3087 105.279 40.3087C104.528 40.3087 103.859 40.1781 103.238 39.9332C102.618 39.672 102.079 39.3292 101.639 38.8721C101.182 38.415 100.839 37.8762 100.577 37.2559C100.316 36.6355 100.202 35.9499 100.202 35.1989C100.202 34.448 100.333 33.7623 100.577 33.142C100.839 32.5216 101.182 31.9829 101.639 31.5258C102.096 31.0687 102.618 30.7258 103.238 30.4646C103.859 30.2198 104.544 30.0892 105.279 30.0892ZM105.279 37.9415C105.606 37.9415 105.916 37.8762 106.226 37.7619C106.536 37.6313 106.814 37.4518 107.042 37.2232C107.271 36.9947 107.467 36.7008 107.597 36.358C107.728 36.0152 107.809 35.6397 107.809 35.1989C107.809 34.7581 107.744 34.3827 107.597 34.0398C107.467 33.697 107.271 33.4195 107.042 33.1746C106.814 32.9461 106.536 32.7665 106.226 32.6359C105.932 32.5053 105.606 32.4563 105.279 32.4563C104.936 32.4563 104.626 32.5216 104.316 32.6359C104.022 32.7665 103.745 32.9461 103.516 33.1746C103.287 33.4032 103.092 33.697 102.961 34.0398C102.83 34.3827 102.749 34.7581 102.749 35.1989C102.749 35.6397 102.814 36.0152 102.961 36.358C103.092 36.7008 103.287 36.9783 103.516 37.2232C103.745 37.4518 104.022 37.6313 104.316 37.7619C104.626 37.8762 104.936 37.9415 105.279 37.9415ZM113.327 31.6564H113.491C113.784 31.1666 114.193 30.7911 114.699 30.5136C115.205 30.2361 115.792 30.0892 116.445 30.0892C117.049 30.0892 117.572 30.1871 118.029 30.383C118.486 30.5789 118.862 30.8564 119.155 31.2156C119.449 31.5747 119.678 31.9992 119.825 32.5053C119.972 33.0114 120.053 33.5664 120.053 34.1868V39.9985H117.49V34.4969C117.49 33.8113 117.343 33.2889 117.033 32.9624C116.723 32.6359 116.282 32.4563 115.694 32.4563C115.335 32.4563 115.025 32.5379 114.764 32.6849C114.503 32.8318 114.258 33.044 114.078 33.2889C113.882 33.5501 113.752 33.8439 113.654 34.1868C113.556 34.5296 113.507 34.9051 113.507 35.2969V39.9985H110.944V30.3993H113.36L113.327 31.6564Z" fill="#1D1D1B"/>
<path d="M0.852295 0H86.8523L79.0341 7.30189L86.8523 14.6038H0.852295V0Z" fill="#F9B94A"/>
<path d="M0.852295 14.6039H5.82022V19.4718L3.38626 17.0378L0.852295 14.6039Z" fill="#DF880F"/>
<path d="M11.3186 5.3477V4.52486H15.1954V5.3477H13.7503V9.24527H12.7638V5.3477H11.3186ZM15.9637 9.24527V4.52486H17.8261C18.1826 4.52486 18.4868 4.58863 18.7388 4.71616C18.9923 4.84216 19.1852 5.02118 19.3173 5.2532C19.451 5.48369 19.5179 5.7549 19.5179 6.06683C19.5179 6.38029 19.4502 6.64997 19.315 6.87584C19.1798 7.10019 18.9839 7.27229 18.7273 7.39214C18.4722 7.51199 18.1633 7.57192 17.8007 7.57192H16.5538V6.76982H17.6394C17.8299 6.76982 17.9882 6.7437 18.1142 6.69145C18.2402 6.63921 18.3339 6.56084 18.3954 6.45635C18.4584 6.35187 18.4899 6.22202 18.4899 6.06683C18.4899 5.9101 18.4584 5.77795 18.3954 5.67039C18.3339 5.56283 18.2394 5.48139 18.1119 5.42607C17.9859 5.36922 17.8268 5.34079 17.6348 5.34079H16.9617V9.24527H15.9637ZM18.5129 7.09711L19.6861 9.24527H18.5844L17.4365 7.09711H18.5129ZM23.2686 4.52486H24.2667V7.59036C24.2667 7.93456 24.1845 8.23573 24.02 8.49388C23.8572 8.75202 23.629 8.95332 23.3355 9.09776C23.042 9.24066 22.7001 9.31211 22.3098 9.31211C21.918 9.31211 21.5753 9.24066 21.2818 9.09776C20.9883 8.95332 20.7602 8.75202 20.5973 8.49388C20.4344 8.23573 20.353 7.93456 20.353 7.59036V4.52486H21.351V7.50508C21.351 7.68486 21.3902 7.84467 21.4685 7.9845C21.5484 8.12433 21.6606 8.23419 21.805 8.31409C21.9495 8.394 22.1177 8.43395 22.3098 8.43395C22.5034 8.43395 22.6717 8.394 22.8146 8.31409C22.959 8.23419 23.0704 8.12433 23.1488 7.9845C23.2287 7.84467 23.2686 7.68486 23.2686 7.50508V4.52486ZM27.7783 5.88244C27.7599 5.69651 27.6807 5.55207 27.5409 5.44912C27.4011 5.34617 27.2113 5.29469 26.9716 5.29469C26.8087 5.29469 26.6712 5.31774 26.559 5.36384C26.4469 5.4084 26.3608 5.47063 26.3009 5.55053C26.2425 5.63044 26.2133 5.7211 26.2133 5.82251C26.2102 5.90702 26.2279 5.98078 26.2663 6.04378C26.3063 6.10678 26.3608 6.16133 26.43 6.20743C26.4991 6.25199 26.579 6.29117 26.6697 6.32498C26.7603 6.35724 26.8571 6.3849 26.9601 6.40795L27.3842 6.50937C27.5901 6.55546 27.7791 6.61693 27.9512 6.69376C28.1233 6.77059 28.2723 6.86509 28.3983 6.97726C28.5243 7.08943 28.6219 7.22158 28.6911 7.3737C28.7617 7.52582 28.7978 7.70023 28.7994 7.89691C28.7978 8.18579 28.7241 8.43625 28.5781 8.6483C28.4337 8.85882 28.2247 9.02246 27.9512 9.13924C27.6792 9.25449 27.3511 9.31211 26.967 9.31211C26.5859 9.31211 26.254 9.25372 25.9713 9.13694C25.6901 9.02016 25.4704 8.84729 25.3121 8.61834C25.1554 8.38785 25.0731 8.10281 25.0655 7.76323H26.0312C26.042 7.9215 26.0873 8.05364 26.1672 8.15967C26.2486 8.26416 26.357 8.34329 26.4922 8.39707C26.6289 8.44931 26.7834 8.47544 26.9555 8.47544C27.1245 8.47544 27.2712 8.45085 27.3957 8.40168C27.5217 8.35251 27.6193 8.28413 27.6884 8.19655C27.7576 8.10896 27.7921 8.00831 27.7921 7.89461C27.7921 7.78858 27.7606 7.69946 27.6976 7.62724C27.6362 7.55502 27.5455 7.49355 27.4257 7.44285C27.3074 7.39214 27.1621 7.34604 26.99 7.30455L26.4761 7.17548C26.0781 7.07867 25.7638 6.92732 25.5334 6.72142C25.3029 6.51551 25.1884 6.23816 25.1899 5.88935C25.1884 5.60355 25.2645 5.35385 25.4181 5.14026C25.5733 4.92668 25.7861 4.75996 26.0566 4.6401C26.327 4.52025 26.6343 4.46032 26.9785 4.46032C27.3289 4.46032 27.6346 4.52025 27.8959 4.6401C28.1586 4.75996 28.363 4.92668 28.509 5.14026C28.6549 5.35385 28.7302 5.60124 28.7348 5.88244H27.7783ZM29.4207 5.3477V4.52486H33.2975V5.3477H31.8524V9.24527H30.8659V5.3477H29.4207ZM34.0658 9.24527V4.52486H37.2465V5.3477H35.0638V6.47249H37.0829V7.29533H35.0638V8.42242H37.2558V9.24527H34.0658ZM39.8432 9.24527H38.1698V4.52486H39.857C40.3318 4.52486 40.7405 4.61936 41.0832 4.80836C41.4259 4.99582 41.6894 5.2655 41.8738 5.61738C42.0597 5.96925 42.1527 6.39028 42.1527 6.88045C42.1527 7.37216 42.0597 7.79473 41.8738 8.14814C41.6894 8.50156 41.4243 8.77277 41.0786 8.96177C40.7344 9.15077 40.3226 9.24527 39.8432 9.24527ZM39.1678 8.39016H39.8017C40.0967 8.39016 40.3449 8.33791 40.5462 8.23342C40.749 8.1274 40.9011 7.96375 41.0025 7.74248C41.1055 7.51968 41.157 7.23233 41.157 6.88045C41.157 6.53165 41.1055 6.24661 41.0025 6.02534C40.9011 5.80407 40.7498 5.64119 40.5485 5.5367C40.3472 5.43222 40.099 5.37997 39.804 5.37997H39.1678V8.39016ZM44.6538 9.24527V4.52486H46.5161C46.8742 4.52486 47.1792 4.59324 47.4312 4.72999C47.6832 4.86521 47.8753 5.05345 48.0074 5.29469C48.1411 5.5344 48.2079 5.81099 48.2079 6.12445C48.2079 6.43792 48.1403 6.7145 48.0051 6.95421C47.8699 7.19392 47.674 7.38061 47.4174 7.5143C47.1623 7.64798 46.8534 7.71482 46.4908 7.71482H45.3038V6.91503H46.3294C46.5215 6.91503 46.6798 6.88199 46.8043 6.81592C46.9303 6.74831 47.024 6.65534 47.0854 6.53703C47.1484 6.41717 47.1799 6.27965 47.1799 6.12445C47.1799 5.96772 47.1484 5.83096 47.0854 5.71418C47.024 5.59586 46.9303 5.50444 46.8043 5.4399C46.6782 5.37383 46.5184 5.34079 46.3248 5.34079H45.6518V9.24527H44.6538ZM49.2545 9.24527H48.185L49.8146 4.52486H51.1007L52.728 9.24527H51.6585L50.4761 5.60355H50.4392L49.2545 9.24527ZM49.1877 7.38983H51.7138V8.16889H49.1877V7.38983ZM53.4259 9.24527V4.52486H55.2883C55.6448 4.52486 55.949 4.58863 56.201 4.71616C56.4546 4.84216 56.6474 5.02118 56.7796 5.2532C56.9132 5.48369 56.9801 5.7549 56.9801 6.06683C56.9801 6.38029 56.9125 6.64997 56.7772 6.87584C56.642 7.10019 56.4461 7.27229 56.1895 7.39214C55.9344 7.51199 55.6256 7.57192 55.2629 7.57192H54.016V6.76982H55.1016C55.2921 6.76982 55.4504 6.7437 55.5764 6.69145C55.7024 6.63921 55.7961 6.56084 55.8576 6.45635C55.9206 6.35187 55.9521 6.22202 55.9521 6.06683C55.9521 5.9101 55.9206 5.77795 55.8576 5.67039C55.7961 5.56283 55.7016 5.48139 55.5741 5.42607C55.4481 5.36922 55.2891 5.34079 55.097 5.34079H54.424V9.24527H53.4259ZM55.9751 7.09711L57.1483 9.24527H56.0466L54.8988 7.09711H55.9751ZM57.6354 5.3477V4.52486H61.5122V5.3477H60.0671V9.24527H59.0806V5.3477H57.6354ZM66.2288 4.52486V9.24527H65.3667L63.3131 6.27427H63.2785V9.24527H62.2805V4.52486H63.1564L65.1939 7.49355H65.2354V4.52486H66.2288ZM67.1832 9.24527V4.52486H70.3639V5.3477H68.1812V6.47249H70.2003V7.29533H68.1812V8.42242H70.3731V9.24527H67.1832ZM71.2872 9.24527V4.52486H73.1495C73.506 4.52486 73.8103 4.58863 74.0623 4.71616C74.3158 4.84216 74.5086 5.02118 74.6408 5.2532C74.7745 5.48369 74.8413 5.7549 74.8413 6.06683C74.8413 6.38029 74.7737 6.64997 74.6385 6.87584C74.5033 7.10019 74.3073 7.27229 74.0507 7.39214C73.7957 7.51199 73.4868 7.57192 73.1242 7.57192H71.8772V6.76982H72.9628C73.1534 6.76982 73.3116 6.7437 73.4376 6.69145C73.5636 6.63921 73.6574 6.56084 73.7188 6.45635C73.7818 6.35187 73.8133 6.22202 73.8133 6.06683C73.8133 5.9101 73.7818 5.77795 73.7188 5.67039C73.6574 5.56283 73.5629 5.48139 73.4353 5.42607C73.3093 5.36922 73.1503 5.34079 72.9582 5.34079H72.2852V9.24527H71.2872ZM73.8364 7.09711L75.0096 9.24527H73.9078L72.76 7.09711H73.8364Z" fill="#333333"/>
</svg>
