<svg width="130" height="56" viewBox="0 0 130 56" fill="none" xmlns="http://www.w3.org/2000/svg">
<rect width="130" height="56" rx="7" fill="white"/>
<rect x="0.325008" y="0.325008" width="129.35" height="55.35" rx="6.67499" stroke="#BBBBBB" stroke-opacity="0.5" stroke-width="0.650015"/>
<path d="M21.4255 29.6475L17.7856 34.0708H25.0654L21.4255 29.6475Z" fill="#2AA76D"/>
<path d="M16 28.4147C16 34.813 25.6302 34.813 25.6302 28.4147C25.6302 22 16 22 16 28.4147ZM18.4647 28.4147C18.4647 25.1012 23.1655 25.1012 23.1655 28.4147C23.1166 29.0023 22.8391 29.5409 22.4147 29.9326C21.974 30.3244 21.4027 30.5529 20.8151 30.5529C20.2275 30.5529 19.6562 30.3407 19.2155 29.9326C18.7911 29.5246 18.5136 28.9859 18.4647 28.4147ZM30.2331 23.7628H27.8174V33.0339H33.6445V30.8793H30.2331V23.7628ZM38.1821 26.864H38.0678L36.3866 23.7791H33.8077V24.1056L36.9416 29.1328V33.0502H39.292V29.1328L42.4912 24.1056V23.7791H39.8633L38.1821 26.864ZM48.71 27.7454L45.0212 23.7138H44.1234V33.0502H46.5881V28.9043L48.5958 30.9446H48.8732L50.8809 28.9043V33.0502H53.3456V23.7791H52.5131L48.71 27.7454ZM60.1846 23.7628H56.0388V33.0339H58.4545V30.6671H60.1846C64.657 30.6671 64.657 23.7628 60.1846 23.7628ZM60.1846 28.5126H58.4545V25.8684H60.1846C61.5884 25.9173 61.4741 28.5126 60.1846 28.5126ZM68.8029 25.8684H71.1043V33.0502H73.4547V25.8684H75.7562V23.7791H68.8192V25.8684H68.8029ZM81.7465 23.7628H77.6006V33.0339H80V30.3244H81.2242L82.8401 33.0339H85.5333V32.7074L83.6889 29.7204C86.1046 28.1861 85.4354 23.7628 81.7465 23.7628ZM81.7465 28.1861H80.0163V25.8684H81.7465C83.0849 25.9173 83.036 28.1861 81.7465 28.1861ZM90.8054 23.6648L86.5453 32.7238V33.0502H88.8957L89.4507 31.8913H93.1395L93.6945 33.0502H96.0449V32.7238L91.8827 23.6648H90.8054ZM90.3157 29.851L91.3767 27.419L92.4376 29.851H90.3157ZM101.235 23.7628H97.7098V33.0339H101.235C107.324 33.0502 107.324 23.7628 101.235 23.7628ZM101.235 30.8957H100.109V25.9173H101.235C104.19 25.9173 104.19 30.8957 101.235 30.8957ZM110.36 30.9446V29.2797H113.559V27.1742H110.36V25.852H113.836V23.7628H107.96V33.0339H113.951V30.9283L110.36 30.9446Z" fill="#1D1D1B"/>
<path d="M45.2334 22L48.5958 25.3134L51.9582 22H45.2334Z" fill="#DF553A"/>
</svg>
