<svg width="135" height="62" viewBox="0 0 135 62" fill="none" xmlns="http://www.w3.org/2000/svg">
<rect x="4.79932" y="5.45227" width="130" height="56" rx="7" fill="white"/>
<rect x="5.12432" y="5.77728" width="129.35" height="55.35" rx="6.67499" stroke="#BBBBBB" stroke-opacity="0.5" stroke-width="0.650015"/>
<path d="M32.108 40.7828C32.0651 40.7632 32.056 40.7057 32.0807 40.6479C34.8909 39.2448 36.1345 36.9983 36.1056 33.9359C36.0749 30.6934 34.5158 28.4598 31.7305 26.9726C31.7305 26.9726 31.7312 26.9359 31.7297 26.9176C32.6606 26.3215 33.6738 26.0382 34.7718 26.0197C36.0178 25.9987 37.2251 26.0657 38.3975 26.6102C39.8713 27.2948 41.0588 28.2614 41.8712 29.6643C43.2582 32.0592 43.3719 34.5866 42.2559 37.0595C41.2523 39.2834 39.4843 40.7256 37.0293 41.2867C35.3272 41.6757 33.7278 41.4583 32.108 40.7828Z" fill="#009AF9"/>
<path d="M32.0955 40.7546C30.6402 41.318 29.1388 41.5699 27.5733 41.5151C26.3159 41.4711 25.0554 41.5228 23.7971 41.4966C23.3955 41.4883 23.1165 41.6121 22.8499 41.9016C22.2926 42.5068 21.7049 43.0841 21.0001 43.8055C21.0001 43.4151 21.0001 43.2216 21.0001 43.0281C21.0001 37.7285 20.9998 32.429 21.0003 27.1294C21.0004 26.2024 21.1929 26.0153 22.1431 26.015C24.2548 26.0145 26.3672 26.0489 28.4779 26.0014C29.6455 25.9751 30.6761 26.319 31.7171 26.8931C31.7616 26.9273 31.7609 26.9639 31.7191 26.9805C28.9941 28.4262 27.3383 31.7314 27.8234 34.7235C28.2569 37.3973 29.6062 39.4227 32.0799 40.6687C32.0864 40.6971 32.0955 40.7546 32.0955 40.7546Z" fill="#194CDD"/>
<path d="M31.7336 26.9042C34.5679 28.3966 36.0937 30.6882 36.1244 33.9786C36.1534 37.0863 34.9066 39.366 32.0828 40.761C29.5782 39.5553 28.2255 37.5 27.7909 34.7866C27.3046 31.7502 29.0018 28.3712 31.7336 26.9042Z" fill="#002ED8"/>
<path d="M45.1857 38.0001V29.8664H48.3947C49.0116 29.8664 49.5372 29.9842 49.9714 30.2199C50.4056 30.4529 50.7366 30.7772 50.9643 31.1929C51.1946 31.6059 51.3098 32.0825 51.3098 32.6226C51.3098 33.1628 51.1933 33.6394 50.9603 34.0524C50.7273 34.4654 50.3897 34.7871 49.9476 35.0175C49.508 35.2478 48.9759 35.363 48.351 35.363H46.3057V33.9849H48.073C48.404 33.9849 48.6767 33.9279 48.8911 33.8141C49.1082 33.6976 49.2698 33.5374 49.3757 33.3335C49.4842 33.127 49.5385 32.8901 49.5385 32.6226C49.5385 32.3526 49.4842 32.1169 49.3757 31.9157C49.2698 31.7118 49.1082 31.5543 48.8911 31.4431C48.674 31.3292 48.3987 31.2723 48.0651 31.2723H46.9054V38.0001H45.1857ZM55.053 38.1192C54.436 38.1192 53.9025 37.9882 53.4524 37.7261C53.005 37.4613 52.6595 37.0933 52.4159 36.622C52.1723 36.148 52.0505 35.5986 52.0505 34.9738C52.0505 34.3436 52.1723 33.7929 52.4159 33.3216C52.6595 32.8477 53.005 32.4797 53.4524 32.2175C53.9025 31.9528 54.436 31.8204 55.053 31.8204C55.6699 31.8204 56.2021 31.9528 56.6495 32.2175C57.0996 32.4797 57.4465 32.8477 57.6901 33.3216C57.9336 33.7929 58.0554 34.3436 58.0554 34.9738C58.0554 35.5986 57.9336 36.148 57.6901 36.622C57.4465 37.0933 57.0996 37.4613 56.6495 37.7261C56.2021 37.9882 55.6699 38.1192 55.053 38.1192ZM55.0609 36.8086C55.3416 36.8086 55.5759 36.7292 55.7639 36.5703C55.9519 36.4088 56.0935 36.1891 56.1888 35.9111C56.2868 35.6331 56.3358 35.3167 56.3358 34.9619C56.3358 34.6071 56.2868 34.2907 56.1888 34.0127C56.0935 33.7347 55.9519 33.5149 55.7639 33.3534C55.5759 33.1919 55.3416 33.1111 55.0609 33.1111C54.7776 33.1111 54.5393 33.1919 54.346 33.3534C54.1554 33.5149 54.0111 33.7347 53.9131 34.0127C53.8178 34.2907 53.7702 34.6071 53.7702 34.9619C53.7702 35.3167 53.8178 35.6331 53.9131 35.9111C54.0111 36.1891 54.1554 36.4088 54.346 36.5703C54.5393 36.7292 54.7776 36.8086 55.0609 36.8086ZM61.9118 38.1192C61.2869 38.1192 60.7495 37.9869 60.2994 37.7221C59.8519 37.4547 59.5077 37.084 59.2668 36.6101C59.0285 36.1361 58.9093 35.5907 58.9093 34.9738C58.9093 34.3489 59.0298 33.8009 59.2707 33.3296C59.5143 32.8556 59.8598 32.4863 60.3073 32.2215C60.7548 31.9541 61.2869 31.8204 61.9039 31.8204C62.436 31.8204 62.902 31.917 63.3018 32.1103C63.7016 32.3036 64.018 32.575 64.251 32.9245C64.484 33.274 64.6124 33.6844 64.6363 34.1556H63.0397C62.9947 33.8512 62.8756 33.6063 62.6823 33.4209C62.4916 33.2329 62.2414 33.1389 61.9317 33.1389C61.6695 33.1389 61.4405 33.2104 61.2446 33.3534C61.0513 33.4937 60.9004 33.6989 60.7918 33.969C60.6833 34.2391 60.629 34.566 60.629 34.95C60.629 35.3392 60.6819 35.6701 60.7879 35.9428C60.8964 36.2156 61.0486 36.4234 61.2446 36.5664C61.4405 36.7093 61.6695 36.7808 61.9317 36.7808C62.1249 36.7808 62.2984 36.7411 62.4519 36.6617C62.6081 36.5823 62.7365 36.4671 62.8372 36.3162C62.9404 36.1626 63.0079 35.9786 63.0397 35.7641H64.6363C64.6098 36.2301 64.4827 36.6405 64.255 36.9953C64.0299 37.3474 63.7188 37.6228 63.3217 37.8214C62.9245 38.0199 62.4546 38.1192 61.9118 38.1192ZM67.2525 36.2447L67.2565 34.2152H67.5027L69.4567 31.8998H71.3988L68.7736 34.9658H68.3725L67.2525 36.2447ZM65.7195 38.0001V29.8664H67.4114V38.0001H65.7195ZM69.5322 38.0001L67.737 35.3431L68.865 34.1477L71.514 38.0001H69.5322ZM74.7577 38.1192C74.1302 38.1192 73.5901 37.9921 73.1373 37.738C72.6872 37.4811 72.3404 37.1184 72.0968 36.6498C71.8532 36.1785 71.7314 35.6211 71.7314 34.9778C71.7314 34.3503 71.8532 33.7995 72.0968 33.3256C72.3404 32.8517 72.6832 32.4823 73.1254 32.2175C73.5702 31.9528 74.0918 31.8204 74.6902 31.8204C75.0926 31.8204 75.4673 31.8853 75.8141 32.015C76.1636 32.1421 76.4681 32.334 76.7276 32.5909C76.9897 32.8477 77.1936 33.1707 77.3392 33.5599C77.4848 33.9465 77.5576 34.3992 77.5576 34.9182V35.3829H72.4066V34.3344H75.9651C75.9651 34.0908 75.9121 33.875 75.8062 33.687C75.7003 33.499 75.5533 33.3521 75.3654 33.2462C75.18 33.1376 74.9642 33.0833 74.718 33.0833C74.4612 33.0833 74.2335 33.1429 74.0349 33.2621C73.839 33.3786 73.6854 33.5361 73.5742 33.7347C73.463 33.9306 73.4061 34.149 73.4034 34.39V35.3868C73.4034 35.6887 73.459 35.9495 73.5702 36.1692C73.6841 36.389 73.8443 36.5584 74.0508 36.6776C74.2573 36.7967 74.5022 36.8563 74.7855 36.8563C74.9735 36.8563 75.1456 36.8298 75.3018 36.7769C75.458 36.7239 75.5917 36.6445 75.7029 36.5386C75.8141 36.4327 75.8989 36.3029 75.9571 36.1494L77.5219 36.2526C77.4425 36.6286 77.2796 36.9569 77.0334 37.2376C76.7898 37.5156 76.4747 37.7327 76.0882 37.8889C75.7043 38.0425 75.2608 38.1192 74.7577 38.1192ZM81.9065 31.8998V33.1707H78.2328V31.8998H81.9065ZM79.0668 30.4383H80.7587V36.1255C80.7587 36.2817 80.7825 36.4035 80.8302 36.4909C80.8778 36.5756 80.944 36.6352 81.0288 36.6696C81.1161 36.704 81.2167 36.7213 81.3306 36.7213C81.41 36.7213 81.4895 36.7146 81.5689 36.7014C81.6483 36.6855 81.7092 36.6736 81.7516 36.6657L82.0177 37.9246C81.9329 37.9511 81.8138 37.9816 81.6602 38.016C81.5067 38.053 81.32 38.0756 81.1002 38.0835C80.6925 38.0994 80.3351 38.0451 80.0279 37.9207C79.7234 37.7962 79.4865 37.6029 79.317 37.3408C79.1476 37.0787 79.0642 36.7477 79.0668 36.3479V30.4383ZM86.7398 38.0784C86.0166 38.0784 85.3605 37.9106 84.7715 37.5751C84.1825 37.2321 83.7165 36.7587 83.3735 36.1548C83.038 35.5434 82.8702 34.8537 82.8702 34.0858C82.8702 33.3178 83.038 32.6319 83.3735 32.0279C83.7165 31.4165 84.1825 30.9431 84.7715 30.6076C85.3605 30.2646 86.0166 30.0931 86.7398 30.0931C87.4705 30.0931 88.1304 30.2646 88.7194 30.6076C89.3084 30.9431 89.7707 31.4165 90.1062 32.0279C90.4417 32.6319 90.6094 33.3178 90.6094 34.0858C90.6094 34.8537 90.4417 35.5434 90.1062 36.1548C89.7707 36.7587 89.3084 37.2321 88.7194 37.5751C88.1304 37.9106 87.4705 38.0784 86.7398 38.0784ZM86.7398 37.3962C87.3214 37.3962 87.8433 37.262 88.3056 36.9935C88.7678 36.7251 89.1332 36.3412 89.4016 35.8416C89.67 35.3346 89.8042 34.7493 89.8042 34.0858C89.8042 33.4222 89.67 32.8406 89.4016 32.3411C89.1332 31.8415 88.7678 31.4576 88.3056 31.1891C87.8433 30.9207 87.3214 30.7865 86.7398 30.7865C86.1583 30.7865 85.6364 30.9207 85.1741 31.1891C84.7118 31.4576 84.3465 31.8415 84.0781 32.3411C83.8097 32.8406 83.6755 33.4222 83.6755 34.0858C83.6755 34.7493 83.8097 35.3346 84.0781 35.8416C84.3465 36.3412 84.7118 36.7251 85.1741 36.9935C85.6364 37.262 86.1583 37.3962 86.7398 37.3962ZM92.8136 33.2358C93.0075 32.8257 93.3132 32.4865 93.7307 32.2181C94.1557 31.9422 94.659 31.8042 95.2405 31.8042C95.7922 31.8042 96.2881 31.9347 96.728 32.1957C97.1753 32.4492 97.522 32.8145 97.7681 33.2917C98.0216 33.7614 98.1483 34.3094 98.1483 34.9357C98.1483 35.562 98.0216 36.1138 97.7681 36.5909C97.522 37.0681 97.1753 37.4372 96.728 37.6981C96.2881 37.9591 95.7922 38.0896 95.2405 38.0896C94.6664 38.0896 94.1669 37.9554 93.7419 37.6869C93.3169 37.4111 93.0075 37.0681 92.8136 36.658V40.8855H92.0419V31.8937H92.8136V33.2358ZM97.3543 34.9357C97.3543 34.4287 97.2536 33.9926 97.0523 33.6272C96.8584 33.2544 96.59 32.9711 96.2471 32.7772C95.9041 32.5834 95.5164 32.4865 95.0839 32.4865C94.6664 32.4865 94.2824 32.5871 93.932 32.7884C93.589 32.9897 93.3169 33.2768 93.1156 33.6496C92.9143 34.0224 92.8136 34.4548 92.8136 34.9469C92.8136 35.439 92.9143 35.8714 93.1156 36.2442C93.3169 36.617 93.589 36.9041 93.932 37.1054C94.2824 37.3067 94.6664 37.4073 95.0839 37.4073C95.5164 37.4073 95.9041 37.3104 96.2471 37.1166C96.59 36.9153 96.8584 36.6282 97.0523 36.2554C97.2536 35.8752 97.3543 35.4353 97.3543 34.9357ZM100.607 32.5536V36.3449C100.607 36.7177 100.677 36.9749 100.819 37.1166C100.961 37.2582 101.21 37.3291 101.568 37.3291H102.284V38.0001H101.445C100.894 38.0001 100.484 37.8733 100.215 37.6198C99.9467 37.3589 99.8125 36.9339 99.8125 36.3449V32.5536H98.9625V31.8937H99.8125V30.3615H100.607V31.8937H102.284V32.5536H100.607ZM103.967 30.7418C103.81 30.7418 103.676 30.6859 103.564 30.574C103.452 30.4622 103.396 30.3243 103.396 30.1602C103.396 29.9962 103.452 29.862 103.564 29.7576C103.676 29.6458 103.81 29.5899 103.967 29.5899C104.123 29.5899 104.257 29.6458 104.369 29.7576C104.481 29.862 104.537 29.9962 104.537 30.1602C104.537 30.3243 104.481 30.4622 104.369 30.574C104.257 30.6859 104.123 30.7418 103.967 30.7418ZM104.358 31.8937V38.0001H103.575V31.8937H104.358ZM108.804 38.0896C108.23 38.0896 107.712 37.9628 107.249 37.7093C106.795 37.4484 106.433 37.083 106.164 36.6133C105.904 36.1361 105.773 35.5807 105.773 34.9469C105.773 34.3132 105.907 33.7614 106.176 33.2917C106.444 32.8145 106.809 32.4492 107.272 32.1957C107.734 31.9347 108.252 31.8042 108.826 31.8042C109.4 31.8042 109.919 31.9347 110.381 32.1957C110.851 32.4492 111.216 32.8145 111.477 33.2917C111.745 33.7614 111.879 34.3132 111.879 34.9469C111.879 35.5732 111.745 36.1249 111.477 36.6021C111.208 37.0793 110.839 37.4484 110.37 37.7093C109.9 37.9628 109.378 38.0896 108.804 38.0896ZM108.804 37.4073C109.206 37.4073 109.579 37.3179 109.922 37.1389C110.265 36.9525 110.541 36.6767 110.75 36.3113C110.966 35.9385 111.074 35.4837 111.074 34.9469C111.074 34.4101 110.97 33.959 110.761 33.5937C110.552 33.2209 110.276 32.945 109.933 32.7661C109.59 32.5797 109.218 32.4865 108.815 32.4865C108.412 32.4865 108.04 32.5797 107.697 32.7661C107.354 32.945 107.078 33.2209 106.869 33.5937C106.668 33.959 106.567 34.4101 106.567 34.9469C106.567 35.4837 106.668 35.9385 106.869 36.3113C107.078 36.6767 107.35 36.9525 107.685 37.1389C108.028 37.3179 108.401 37.4073 108.804 37.4073ZM116.17 31.7819C116.9 31.7819 117.497 32.0093 117.959 32.4641C118.421 32.9114 118.652 33.5638 118.652 34.4213V38.0001H117.881V34.5107C117.881 33.8472 117.713 33.3402 117.377 32.9897C117.049 32.6393 116.598 32.4641 116.024 32.4641C115.435 32.4641 114.965 32.6505 114.615 33.0233C114.265 33.3961 114.089 33.9441 114.089 34.6673V38.0001H113.307V31.8937H114.089V32.9338C114.283 32.561 114.563 32.2777 114.928 32.0838C115.293 31.8825 115.707 31.7819 116.17 31.7819Z" fill="#1D1D1B"/>
<path d="M0 0H86L78.1818 7.30189L86 14.6038H0V0Z" fill="#F9B94A"/>
<path d="M0 14.6039H4.81V19.4718L2.405 17.0378L0 14.6039Z" fill="#DF880F"/>
<path d="M10.3662 5.34767V4.52483H14.2431V5.34767H12.7979V9.24524H11.8114V5.34767H10.3662ZM15.0113 9.24524V4.52483H16.8737C17.2302 4.52483 17.5344 4.5886 17.7864 4.71613C18.0399 4.84213 18.2328 5.02115 18.3649 5.25317C18.4986 5.48366 18.5655 5.75487 18.5655 6.0668C18.5655 6.38026 18.4978 6.64993 18.3626 6.87581C18.2274 7.10016 18.0315 7.27225 17.7749 7.39211C17.5198 7.51196 17.211 7.57189 16.8483 7.57189H15.6014V6.76979H16.687C16.8775 6.76979 17.0358 6.74367 17.1618 6.69142C17.2878 6.63918 17.3815 6.56081 17.443 6.45632C17.506 6.35184 17.5375 6.22199 17.5375 6.0668C17.5375 5.91007 17.506 5.77792 17.443 5.67036C17.3815 5.5628 17.287 5.48136 17.1595 5.42604C17.0335 5.36918 16.8744 5.34076 16.6824 5.34076H16.0093V9.24524H15.0113ZM17.5605 7.09708L18.7337 9.24524H17.632L16.4841 7.09708H17.5605ZM22.3162 4.52483H23.3143V7.59033C23.3143 7.93453 23.2321 8.2357 23.0676 8.49385C22.9048 8.75199 22.6766 8.95329 22.3831 9.09773C22.0896 9.24063 21.7477 9.31208 21.3574 9.31208C20.9656 9.31208 20.6229 9.24063 20.3294 9.09773C20.0359 8.95329 19.8078 8.75199 19.6449 8.49385C19.482 8.2357 19.4006 7.93453 19.4006 7.59033V4.52483H20.3986V7.50505C20.3986 7.68483 20.4378 7.84464 20.5161 7.98447C20.596 8.1243 20.7082 8.23416 20.8526 8.31406C20.9971 8.39397 21.1653 8.43392 21.3574 8.43392C21.551 8.43392 21.7193 8.39397 21.8622 8.31406C22.0066 8.23416 22.118 8.1243 22.1964 7.98447C22.2763 7.84464 22.3162 7.68483 22.3162 7.50505V4.52483ZM26.8259 5.88241C26.8075 5.69648 26.7284 5.55204 26.5885 5.44909C26.4487 5.34614 26.2589 5.29466 26.0192 5.29466C25.8563 5.29466 25.7188 5.31771 25.6066 5.36381C25.4945 5.40837 25.4084 5.4706 25.3485 5.5505C25.2901 5.63041 25.2609 5.72106 25.2609 5.82248C25.2578 5.90699 25.2755 5.98075 25.3139 6.04375C25.3539 6.10675 25.4084 6.1613 25.4776 6.2074C25.5467 6.25196 25.6266 6.29114 25.7173 6.32495C25.8079 6.35721 25.9047 6.38487 26.0077 6.40792L26.4318 6.50934C26.6377 6.55543 26.8267 6.6169 26.9988 6.69373C27.1709 6.77056 27.3199 6.86506 27.4459 6.97723C27.5719 7.0894 27.6695 7.22155 27.7387 7.37367C27.8093 7.52579 27.8455 7.7002 27.847 7.89688C27.8455 8.18576 27.7717 8.43622 27.6257 8.64827C27.4813 8.85879 27.2723 9.02243 26.9988 9.13921C26.7268 9.25446 26.3988 9.31208 26.0146 9.31208C25.6335 9.31208 25.3016 9.25369 25.0189 9.13691C24.7377 9.02013 24.518 8.84726 24.3597 8.61831C24.203 8.38782 24.1208 8.10278 24.1131 7.7632H25.0788C25.0896 7.92146 25.1349 8.05361 25.2148 8.15964C25.2962 8.26412 25.4046 8.34326 25.5398 8.39704C25.6766 8.44928 25.831 8.47541 26.0031 8.47541C26.1721 8.47541 26.3188 8.45082 26.4433 8.40165C26.5693 8.35248 26.6669 8.2841 26.736 8.19651C26.8052 8.10893 26.8398 8.00828 26.8398 7.89457C26.8398 7.78855 26.8083 7.69943 26.7453 7.62721C26.6838 7.55499 26.5931 7.49352 26.4733 7.44282C26.355 7.39211 26.2098 7.34601 26.0377 7.30452L25.5237 7.17545C25.1257 7.07864 24.8115 6.92729 24.581 6.72139C24.3505 6.51548 24.236 6.23813 24.2375 5.88932C24.236 5.60352 24.3121 5.35382 24.4657 5.14023C24.6209 4.92665 24.8337 4.75993 25.1042 4.64007C25.3746 4.52022 25.6819 4.46029 26.0261 4.46029C26.3765 4.46029 26.6823 4.52022 26.9435 4.64007C27.2062 4.75993 27.4106 4.92665 27.5566 5.14023C27.7026 5.35382 27.7778 5.60121 27.7825 5.88241H26.8259ZM28.4683 5.34767V4.52483H32.3451V5.34767H30.9V9.24524H29.9135V5.34767H28.4683ZM33.1134 9.24524V4.52483H36.2942V5.34767H34.1114V6.47246H36.1305V7.2953H34.1114V8.42239H36.3034V9.24524H33.1134ZM38.8908 9.24524H37.2174V4.52483H38.9046C39.3794 4.52483 39.7881 4.61933 40.1308 4.80833C40.4735 4.99579 40.737 5.26546 40.9214 5.61734C41.1073 5.96922 41.2003 6.39025 41.2003 6.88042C41.2003 7.37213 41.1073 7.7947 40.9214 8.14811C40.737 8.50153 40.4719 8.77274 40.1262 8.96174C39.782 9.15074 39.3702 9.24524 38.8908 9.24524ZM38.2154 8.39013H38.8493C39.1443 8.39013 39.3925 8.33788 39.5938 8.23339C39.7966 8.12737 39.9487 7.96372 40.0501 7.74245C40.1531 7.51965 40.2046 7.2323 40.2046 6.88042C40.2046 6.53162 40.1531 6.24658 40.0501 6.02531C39.9487 5.80404 39.7974 5.64116 39.5961 5.53667C39.3948 5.43219 39.1466 5.37994 38.8516 5.37994H38.2154V8.39013ZM43.7014 9.24524V4.52483H45.5637C45.9218 4.52483 46.2268 4.59321 46.4788 4.72996C46.7308 4.86518 46.9229 5.05342 47.055 5.29466C47.1887 5.53437 47.2555 5.81096 47.2555 6.12442C47.2555 6.43788 47.1879 6.71447 47.0527 6.95418C46.9175 7.19389 46.7216 7.38058 46.465 7.51427C46.2099 7.64795 45.901 7.71479 45.5384 7.71479H44.3514V6.915H45.3771C45.5691 6.915 45.7274 6.88196 45.8519 6.81589C45.9779 6.74828 46.0716 6.65531 46.1331 6.537C46.1961 6.41714 46.2276 6.27962 46.2276 6.12442C46.2276 5.96769 46.1961 5.83093 46.1331 5.71415C46.0716 5.59583 45.9779 5.5044 45.8519 5.43987C45.7259 5.37379 45.5661 5.34076 45.3724 5.34076H44.6994V9.24524H43.7014ZM48.3021 9.24524H47.2326L48.8622 4.52483H50.1483L51.7756 9.24524H50.7061L49.5237 5.60352H49.4868L48.3021 9.24524ZM48.2353 7.3898H50.7614V8.16886H48.2353V7.3898ZM52.4735 9.24524V4.52483H54.3359C54.6924 4.52483 54.9966 4.5886 55.2486 4.71613C55.5022 4.84213 55.695 5.02115 55.8272 5.25317C55.9608 5.48366 56.0277 5.75487 56.0277 6.0668C56.0277 6.38026 55.9601 6.64993 55.8249 6.87581C55.6896 7.10016 55.4937 7.27225 55.2371 7.39211C54.982 7.51196 54.6732 7.57189 54.3105 7.57189H53.0636V6.76979H54.1492C54.3397 6.76979 54.498 6.74367 54.624 6.69142C54.75 6.63918 54.8437 6.56081 54.9052 6.45632C54.9682 6.35184 54.9997 6.22199 54.9997 6.0668C54.9997 5.91007 54.9682 5.77792 54.9052 5.67036C54.8437 5.5628 54.7492 5.48136 54.6217 5.42604C54.4957 5.36918 54.3367 5.34076 54.1446 5.34076H53.4716V9.24524H52.4735ZM55.0228 7.09708L56.1959 9.24524H55.0942L53.9464 7.09708H55.0228ZM56.683 5.34767V4.52483H60.5598V5.34767H59.1147V9.24524H58.1282V5.34767H56.683ZM65.2764 4.52483V9.24524H64.4143L62.3607 6.27424H62.3261V9.24524H61.3281V4.52483H62.204L64.2415 7.49352H64.283V4.52483H65.2764ZM66.2308 9.24524V4.52483H69.4115V5.34767H67.2288V6.47246H69.2479V7.2953H67.2288V8.42239H69.4207V9.24524H66.2308ZM70.3348 9.24524V4.52483H72.1971C72.5536 4.52483 72.8579 4.5886 73.1099 4.71613C73.3634 4.84213 73.5562 5.02115 73.6884 5.25317C73.8221 5.48366 73.8889 5.75487 73.8889 6.0668C73.8889 6.38026 73.8213 6.64993 73.6861 6.87581C73.5509 7.10016 73.3549 7.27225 73.0983 7.39211C72.8433 7.51196 72.5344 7.57189 72.1718 7.57189H70.9248V6.76979H72.0104C72.201 6.76979 72.3592 6.74367 72.4852 6.69142C72.6112 6.63918 72.705 6.56081 72.7664 6.45632C72.8294 6.35184 72.8609 6.22199 72.8609 6.0668C72.8609 5.91007 72.8294 5.77792 72.7664 5.67036C72.705 5.5628 72.6105 5.48136 72.4829 5.42604C72.3569 5.36918 72.1979 5.34076 72.0058 5.34076H71.3328V9.24524H70.3348ZM72.884 7.09708L74.0572 9.24524H72.9554L71.8076 7.09708H72.884Z" fill="#333333"/>
</svg>
