<svg width="135" height="62" viewBox="0 0 135 62" fill="none" xmlns="http://www.w3.org/2000/svg">
<path d="M4.85229 12.4531C4.85229 8.58713 7.9863 5.45312 11.8523 5.45312H127.852C131.718 5.45312 134.852 8.58713 134.852 12.4531V54.4531C134.852 58.3191 131.718 61.4531 127.852 61.4531H11.8523C7.98631 61.4531 4.85229 58.3191 4.85229 54.4531V12.4531Z" fill="white"/>
<path d="M5.1773 12.4531C5.1773 8.76663 8.1658 5.77813 11.8523 5.77813H127.852C131.539 5.77813 134.527 8.76663 134.527 12.4531V54.4531C134.527 58.1396 131.539 61.1281 127.852 61.1281H11.8523C8.1658 61.1281 5.1773 58.1396 5.1773 54.4531V12.4531Z" stroke="#BBBBBB" stroke-opacity="0.5" stroke-width="0.650015"/>
<path d="M61.9718 34.1879C61.9702 34.7104 61.916 35.2314 61.8103 35.7432C61.6944 36.2235 61.5321 36.6914 61.3255 37.1402C61.1035 37.5794 60.8615 37.9581 60.5383 38.3367C60.2351 38.6964 59.892 39.0162 59.4885 39.2946L62.6173 42.6464H60.7397C60.494 42.6469 60.2495 42.6135 60.013 42.5469C59.7809 42.4669 59.5729 42.3295 59.4081 42.1475L57.61 40.192C57.3189 40.273 57.0223 40.3331 56.7226 40.3718C56.408 40.4125 56.091 40.4327 55.7738 40.4323C54.9046 40.4398 54.0417 40.2841 53.23 39.9733C52.4627 39.6542 51.7964 39.235 51.2512 38.6765C50.7004 38.1089 50.268 37.4374 49.9793 36.701C49.676 35.9429 49.5352 35.125 49.5352 34.2276C49.5352 33.3294 49.676 32.5116 49.9793 31.7534C50.268 31.017 50.7004 30.3455 51.2512 29.778C51.7964 29.2195 52.4627 28.8002 53.23 28.4812C53.9964 28.1622 54.8449 28.023 55.7738 28.023C56.7019 28.023 57.5504 28.1821 58.3177 28.5011C59.0849 28.8209 59.7304 29.2394 60.2757 29.7987C60.8264 30.366 61.2588 31.0372 61.5476 31.7733C61.8302 32.4718 61.9718 33.3095 61.9718 34.1879ZM59.6293 34.1879C59.6293 33.5291 59.5291 32.9308 59.3675 32.3914C59.202 31.8939 58.9414 31.4332 58.6002 31.035C58.2722 30.6595 57.8559 30.3716 57.3888 30.1972C56.8749 29.9929 56.3259 29.8912 55.773 29.8981C55.1681 29.8981 54.6229 29.9975 54.158 30.1972C53.6927 30.3859 53.273 30.6715 52.9267 31.035C52.572 31.4272 52.3038 31.8896 52.1395 32.3922C51.9572 32.911 51.8768 33.5092 51.8768 34.1879C51.8761 34.7957 51.9646 35.4004 52.1395 35.9826C52.3218 36.5014 52.5836 36.9604 52.9267 37.32C53.2697 37.6788 53.6741 37.9581 54.158 38.1569C54.6717 38.362 55.2207 38.4639 55.7738 38.4569C56.3787 38.4569 56.9247 38.3575 57.3888 38.1578C57.8508 37.9739 58.2651 37.6874 58.6002 37.32C58.9433 36.9604 59.1852 36.5014 59.3675 35.9826C59.545 35.401 59.6333 34.7959 59.6293 34.1879ZM68.7143 38.437C69.1584 38.437 69.5421 38.3575 69.905 38.2174C70.2461 38.0778 70.5518 37.8639 70.7997 37.5913C71.0477 37.3187 71.2318 36.9941 71.3385 36.6414C71.4595 36.2627 71.5407 35.8434 71.5407 35.3844V28.1025H73.8219V35.3844C73.8219 36.1028 73.7009 36.7814 73.4788 37.3797C73.254 37.9745 72.9107 38.5175 72.4696 38.9756C72.0254 39.4148 71.5001 39.7736 70.8745 40.013C70.2489 40.2724 69.5421 40.3925 68.7549 40.3925C67.9677 40.3925 67.2601 40.2724 66.6345 40.013C66.0335 39.7877 65.4891 39.4336 65.0394 38.9756C64.5874 38.5262 64.2424 37.9807 64.0301 37.3797C63.7838 36.7436 63.6604 36.0665 63.6664 35.3844V28.1025H65.9484V35.3645C65.9484 35.8235 66.0089 36.2428 66.1298 36.6215C66.2508 37.001 66.4331 37.32 66.6751 37.5794C66.9193 37.8514 67.2234 38.063 67.5633 38.1975C67.8865 38.3773 68.2702 38.437 68.7143 38.437ZM87.9357 34.1879C87.9357 35.0852 87.7948 35.9031 87.4915 36.6613C87.2029 37.3976 86.7705 38.0692 86.2196 38.6367C85.6744 39.1952 85.0281 39.6145 84.2608 39.9335C83.4935 40.2525 82.6458 40.3925 81.7169 40.3925C80.8477 40.4 79.9848 40.2443 79.1731 39.9335C78.4058 39.6145 77.7396 39.196 77.1943 38.6367C76.6435 38.0691 76.2111 37.3976 75.9224 36.6613C75.62 35.9039 75.4783 35.0852 75.4783 34.1879C75.4783 33.2896 75.6191 32.4726 75.9224 31.7136C76.2112 30.9776 76.6436 30.3063 77.1943 29.739C77.7396 29.1805 78.4058 28.7613 79.1731 28.4422C79.9404 28.1224 80.7889 27.9832 81.7169 27.9832C82.6458 27.9832 83.4935 28.1431 84.2608 28.4621C85.0281 28.7811 85.6744 29.1996 86.2196 29.7589C86.7704 30.3262 87.2028 30.9974 87.4915 31.7335C87.794 32.4718 87.9357 33.3095 87.9357 34.1879ZM85.5932 34.1879C85.5932 33.5291 85.4929 32.9308 85.3313 32.3922C85.1658 31.8947 84.9052 31.434 84.564 31.0358C84.236 30.6603 83.8197 30.3724 83.3526 30.1981C82.8366 30.001 82.2891 29.8994 81.7368 29.8981C81.1319 29.8981 80.5867 29.9975 80.1218 30.1981C79.6567 30.3865 79.2369 30.6718 78.8905 31.035C78.5358 31.4272 78.2676 31.8896 78.1033 32.3922C77.921 32.911 77.8407 33.5092 77.8407 34.1879C77.8407 34.8458 77.9417 35.4449 78.1033 35.9835C78.2856 36.5022 78.5475 36.9612 78.8905 37.32C79.2336 37.6788 79.6379 37.9581 80.1218 38.1578C80.6357 38.3622 81.1847 38.4638 81.7376 38.4569C82.3425 38.4569 82.8878 38.3574 83.3526 38.1586C83.8148 37.9745 84.229 37.6878 84.564 37.32C84.9071 36.9612 85.149 36.5022 85.3313 35.9835C85.5128 35.4648 85.5932 34.8657 85.5932 34.1879ZM97.7473 28.1224V29.9785H94.0525V40.2724H91.7713V29.9785H88.0567V28.1224H97.7473ZM106.933 28.1224V29.918H101.482V33.2905H105.782V35.0256H101.482V38.4569H106.933V40.2724H99.1808V28.1224H106.933ZM111.881 34.0089L107.964 28.1224H110.245C110.407 28.1224 110.528 28.1423 110.588 28.1829C110.668 28.2284 110.732 28.298 110.771 28.3817L113.577 32.8513C113.597 32.7709 113.638 32.7113 113.677 32.6317C113.718 32.5721 113.759 32.4917 113.799 32.4121L116.363 28.4224C116.484 28.2227 116.646 28.1025 116.848 28.1025H119.049L115.05 33.9277L119.129 40.2724H116.848C116.706 40.2724 116.565 40.2326 116.484 40.1531C116.388 40.0821 116.306 39.9942 116.242 39.8937L113.395 35.2452C113.375 35.3048 113.355 35.3645 113.315 35.444C113.294 35.5045 113.254 35.5642 113.233 35.604L110.488 39.8738C110.428 39.9732 110.346 40.0528 110.266 40.1332C110.17 40.2136 110.048 40.256 109.922 40.2525H107.783L111.881 34.008V34.0089Z" fill="#1D1D1B"/>
<path d="M43.0863 40.4322V28.0029L37.929 25.0696V27.1652L41.2393 29.0603V39.3749L39.7768 40.2126V31.8336H37.929V41.2699L36.4267 42.1085V29.4795H34.5789V43.1649L33.0767 44.0226V24.4117L36.4267 26.3275V24.212L32.1428 21.7784L27.8787 24.212V26.3068L31.2288 24.4117V44.0234L29.7257 43.1658V29.4795H27.8779V42.1283L26.3756 41.2699V31.8336H24.5278V40.2316L23.0255 39.3749V29.0603L23.1266 29.0006L26.3756 27.1644V25.0506L21.1777 28.0029V40.4322L32.1428 46.6368L43.0863 40.4322Z" fill="#A1002A"/>
<path d="M0 14.6039H4.86792V19.4718L2.43396 17.0378L0 14.6039Z" fill="#DF880F"/>
<path d="M0 0H86L78.1818 7.30189L86 14.6038H0V0Z" fill="#F9B94A"/>
<path d="M10.3662 5.51762V4.69478H14.2431V5.51762H12.7979V9.41519H11.8114V5.51762H10.3662ZM15.0113 9.41519V4.69478H16.8737C17.2302 4.69478 17.5344 4.75855 17.7864 4.88609C18.0399 5.01209 18.2328 5.1911 18.3649 5.42312C18.4986 5.65361 18.5655 5.92482 18.5655 6.23675C18.5655 6.55022 18.4978 6.81989 18.3626 7.04577C18.2274 7.27011 18.0315 7.44221 17.7749 7.56206C17.5198 7.68192 17.211 7.74184 16.8483 7.74184H15.6014V6.93974H16.687C16.8775 6.93974 17.0358 6.91362 17.1618 6.86138C17.2878 6.80913 17.3815 6.73076 17.443 6.62628C17.506 6.52179 17.5375 6.39195 17.5375 6.23675C17.5375 6.08002 17.506 5.94787 17.443 5.84031C17.3815 5.73275 17.287 5.65131 17.1595 5.59599C17.0335 5.53914 16.8744 5.51071 16.6824 5.51071H16.0093V9.41519H15.0113ZM17.5605 7.26704L18.7337 9.41519H17.632L16.4841 7.26704H17.5605ZM22.3162 4.69478H23.3143V7.76028C23.3143 8.10448 23.2321 8.40565 23.0676 8.6638C22.9048 8.92195 22.6766 9.12324 22.3831 9.26768C22.0896 9.41058 21.7477 9.48203 21.3574 9.48203C20.9656 9.48203 20.6229 9.41058 20.3294 9.26768C20.0359 9.12324 19.8078 8.92195 19.6449 8.6638C19.482 8.40565 19.4006 8.10448 19.4006 7.76028V4.69478H20.3986V7.675C20.3986 7.85478 20.4378 8.01459 20.5161 8.15442C20.596 8.29425 20.7082 8.40411 20.8526 8.48402C20.9971 8.56392 21.1653 8.60387 21.3574 8.60387C21.551 8.60387 21.7193 8.56392 21.8622 8.48402C22.0066 8.40411 22.118 8.29425 22.1964 8.15442C22.2763 8.01459 22.3162 7.85478 22.3162 7.675V4.69478ZM26.8259 6.05236C26.8075 5.86643 26.7284 5.72199 26.5885 5.61904C26.4487 5.51609 26.2589 5.46461 26.0192 5.46461C25.8563 5.46461 25.7188 5.48766 25.6066 5.53376C25.4945 5.57832 25.4084 5.64055 25.3485 5.72046C25.2901 5.80036 25.2609 5.89102 25.2609 5.99243C25.2578 6.07694 25.2755 6.1507 25.3139 6.2137C25.3539 6.2767 25.4084 6.33125 25.4776 6.37735C25.5467 6.42191 25.6266 6.46109 25.7173 6.4949C25.8079 6.52717 25.9047 6.55482 26.0077 6.57787L26.4318 6.67929C26.6377 6.72539 26.8267 6.78685 26.9988 6.86368C27.1709 6.94051 27.3199 7.03501 27.4459 7.14718C27.5719 7.25935 27.6695 7.3915 27.7387 7.54362C27.8093 7.69574 27.8455 7.87015 27.847 8.06683C27.8455 8.35571 27.7717 8.60618 27.6257 8.81823C27.4813 9.02874 27.2723 9.19239 26.9988 9.30917C26.7268 9.42441 26.3988 9.48203 26.0146 9.48203C25.6335 9.48203 25.3016 9.42364 25.0189 9.30686C24.7377 9.19008 24.518 9.01721 24.3597 8.78826C24.203 8.55777 24.1208 8.27274 24.1131 7.93315H25.0788C25.0896 8.09142 25.1349 8.22356 25.2148 8.32959C25.2962 8.43408 25.4046 8.51321 25.5398 8.56699C25.6766 8.61924 25.831 8.64536 26.0031 8.64536C26.1721 8.64536 26.3188 8.62077 26.4433 8.5716C26.5693 8.52243 26.6669 8.45405 26.736 8.36647C26.8052 8.27888 26.8398 8.17823 26.8398 8.06453C26.8398 7.9585 26.8083 7.86938 26.7453 7.79716C26.6838 7.72494 26.5931 7.66348 26.4733 7.61277C26.355 7.56206 26.2098 7.51596 26.0377 7.47448L25.5237 7.3454C25.1257 7.2486 24.8115 7.09724 24.581 6.89134C24.3505 6.68544 24.236 6.40808 24.2375 6.05927C24.236 5.77347 24.3121 5.52377 24.4657 5.31019C24.6209 5.0966 24.8337 4.92988 25.1042 4.81002C25.3746 4.69017 25.6819 4.63024 26.0261 4.63024C26.3765 4.63024 26.6823 4.69017 26.9435 4.81002C27.2062 4.92988 27.4106 5.0966 27.5566 5.31019C27.7026 5.52377 27.7778 5.77116 27.7825 6.05236H26.8259ZM28.4683 5.51762V4.69478H32.3451V5.51762H30.9V9.41519H29.9135V5.51762H28.4683ZM33.1134 9.41519V4.69478H36.2942V5.51762H34.1114V6.64241H36.1305V7.46526H34.1114V8.59235H36.3034V9.41519H33.1134ZM38.8908 9.41519H37.2174V4.69478H38.9046C39.3794 4.69478 39.7881 4.78928 40.1308 4.97828C40.4735 5.16575 40.737 5.43542 40.9214 5.7873C41.1073 6.13918 41.2003 6.5602 41.2003 7.05038C41.2003 7.54209 41.1073 7.96465 40.9214 8.31806C40.737 8.67148 40.4719 8.94269 40.1262 9.13169C39.782 9.32069 39.3702 9.41519 38.8908 9.41519ZM38.2154 8.56008H38.8493C39.1443 8.56008 39.3925 8.50783 39.5938 8.40335C39.7966 8.29732 39.9487 8.13367 40.0501 7.9124C40.1531 7.6896 40.2046 7.40226 40.2046 7.05038C40.2046 6.70157 40.1531 6.41653 40.0501 6.19526C39.9487 5.97399 39.7974 5.81111 39.5961 5.70663C39.3948 5.60214 39.1466 5.54989 38.8516 5.54989H38.2154V8.56008ZM43.7014 9.41519V4.69478H45.5637C45.9218 4.69478 46.2268 4.76316 46.4788 4.89991C46.7308 5.03513 46.9229 5.22337 47.055 5.46461C47.1887 5.70432 47.2555 5.98091 47.2555 6.29437C47.2555 6.60784 47.1879 6.88442 47.0527 7.12413C46.9175 7.36384 46.7216 7.55054 46.465 7.68422C46.2099 7.8179 45.901 7.88475 45.5384 7.88475H44.3514V7.08495H45.3771C45.5691 7.08495 45.7274 7.05191 45.8519 6.98584C45.9779 6.91823 46.0716 6.82527 46.1331 6.70695C46.1961 6.58709 46.2276 6.44957 46.2276 6.29437C46.2276 6.13764 46.1961 6.00088 46.1331 5.8841C46.0716 5.76578 45.9779 5.67436 45.8519 5.60982C45.7259 5.54375 45.5661 5.51071 45.3724 5.51071H44.6994V9.41519H43.7014ZM48.3021 9.41519H47.2326L48.8622 4.69478H50.1483L51.7756 9.41519H50.7061L49.5237 5.77347H49.4868L48.3021 9.41519ZM48.2353 7.55976H50.7614V8.33881H48.2353V7.55976ZM52.4735 9.41519V4.69478H54.3359C54.6924 4.69478 54.9966 4.75855 55.2486 4.88609C55.5022 5.01209 55.695 5.1911 55.8272 5.42312C55.9608 5.65361 56.0277 5.92482 56.0277 6.23675C56.0277 6.55022 55.9601 6.81989 55.8249 7.04577C55.6896 7.27011 55.4937 7.44221 55.2371 7.56206C54.982 7.68192 54.6732 7.74184 54.3105 7.74184H53.0636V6.93974H54.1492C54.3397 6.93974 54.498 6.91362 54.624 6.86138C54.75 6.80913 54.8437 6.73076 54.9052 6.62628C54.9682 6.52179 54.9997 6.39195 54.9997 6.23675C54.9997 6.08002 54.9682 5.94787 54.9052 5.84031C54.8437 5.73275 54.7492 5.65131 54.6217 5.59599C54.4957 5.53914 54.3367 5.51071 54.1446 5.51071H53.4716V9.41519H52.4735ZM55.0228 7.26704L56.1959 9.41519H55.0942L53.9464 7.26704H55.0228ZM56.683 5.51762V4.69478H60.5598V5.51762H59.1147V9.41519H58.1282V5.51762H56.683ZM65.2764 4.69478V9.41519H64.4143L62.3607 6.44419H62.3261V9.41519H61.3281V4.69478H62.204L64.2415 7.66348H64.283V4.69478H65.2764ZM66.2308 9.41519V4.69478H69.4115V5.51762H67.2288V6.64241H69.2479V7.46526H67.2288V8.59235H69.4207V9.41519H66.2308ZM70.3348 9.41519V4.69478H72.1971C72.5536 4.69478 72.8579 4.75855 73.1099 4.88609C73.3634 5.01209 73.5562 5.1911 73.6884 5.42312C73.8221 5.65361 73.8889 5.92482 73.8889 6.23675C73.8889 6.55022 73.8213 6.81989 73.6861 7.04577C73.5509 7.27011 73.3549 7.44221 73.0983 7.56206C72.8433 7.68192 72.5344 7.74184 72.1718 7.74184H70.9248V6.93974H72.0104C72.201 6.93974 72.3592 6.91362 72.4852 6.86138C72.6112 6.80913 72.705 6.73076 72.7664 6.62628C72.8294 6.52179 72.8609 6.39195 72.8609 6.23675C72.8609 6.08002 72.8294 5.94787 72.7664 5.84031C72.705 5.73275 72.6105 5.65131 72.4829 5.59599C72.3569 5.53914 72.1979 5.51071 72.0058 5.51071H71.3328V9.41519H70.3348ZM72.884 7.26704L74.0572 9.41519H72.9554L71.8076 7.26704H72.884Z" fill="#333333"/>
</svg>
